o Sphere_0
usemtl Root
v -0.6122641139507294 8.970688301033972 1.9918929397086886e-15
v -0.4704740865707398 9.129878691425322 2.0272403070509975e-15
v -0.33843626189231873 9.129878691425322 -0.3187613035202006
v -0.43868871610164645 8.970688301033972 -0.4190407195568065
v -0.43868871610164645 8.777035914888382 1.9488934721342014e-15
v -0.6122641139507294 8.970688301033972 1.9918929397086886e-15
v -0.43868871610164645 8.970688301033972 -0.4190407195568065
v -0.31595829091072086 8.777035914888382 -0.2963057962656002
v -0.43868871610164645 8.970688301033972 -0.4190407195568065
v -0.33843626189231873 9.129878691425322 -0.3187613035202006
v -0.019679451452195646 9.129878691425322 -0.45079468364715375
v -0.019648008258640767 8.970688301033972 -0.5926115925312023
v -0.31595829091072086 8.777035914888382 -0.2963057962656002
v -0.43868871610164645 8.970688301033972 -0.4190407195568065
v -0.019648008258640767 8.970688301033972 -0.5926115925312023
v -0.019648008258640767 8.777035914888382 -0.41904071955680655
v -0.019648008258640767 8.970688301033972 -0.5926115925312023
v -0.019679451452195646 9.129878691425322 -0.45079468364715375
v 0.2990818470478058 9.129878691425322 -0.3187613035202006
v 0.3993926962375641 8.970688301033972 -0.4190407195568065
v -0.019648008258640767 8.777035914888382 -0.41904071955680655
v -0.019648008258640767 8.970688301033972 -0.5926115925312023
v 0.3993926962375641 8.970688301033972 -0.4190407195568065
v 0.2766577997207642 8.777035914888382 -0.2963057962656002
v 0.3993926962375641 8.970688301033972 -0.4190407195568065
v 0.2990818470478058 9.129878691425322 -0.3187613035202006
v 0.4311152004003525 9.129878691425322 2.0272403070509975e-15
v 0.5729635692119599 8.970688301033972 1.9918929397086886e-15
v 0.2766577997207642 8.777035914888382 -0.2963057962656002
v 0.3993926962375641 8.970688301033972 -0.4190407195568065
v 0.5729635692119599 8.970688301033972 1.9918929397086886e-15
v 0.3993926962375641 8.777035914888382 1.9488934721342014e-15
v 0.3993926962375641 8.777035914888382 1.9488934721342014e-15
v 0.5729635692119599 8.970688301033972 1.9918929397086886e-15
v 0.3993926962375641 8.970688301033972 0.4190407195568105
v 0.2766577997207642 8.77703591488838 0.2963057962656041
v 0.5729635692119599 8.970688301033972 1.9918929397086886e-15
v 0.4311152004003525 9.129878691425322 2.0272403070509975e-15
v 0.2990818470478058 9.129878691425322 0.3187613035202047
v 0.3993926962375641 8.970688301033972 0.4190407195568105
v 0.2766577997207642 8.77703591488838 0.2963057962656041
v 0.3993926962375641 8.970688301033972 0.4190407195568105
v -0.019648008258640767 8.970688301033972 0.5926115925312063
v -0.019648008258640767 8.77703591488838 0.41904071955681044
v 0.3993926962375641 8.970688301033972 0.4190407195568105
v 0.2990818470478058 9.129878691425322 0.3187613035202047
v -0.019679451452195646 9.129878691425322 0.45079468364715786
v -0.019648008258640767 8.970688301033972 0.5926115925312063
v -0.019648008258640767 8.77703591488838 0.41904071955681044
v -0.019648008258640767 8.970688301033972 0.5926115925312063
v -0.43868871610164645 8.970688301033972 0.4190407195568105
v -0.3159537928104401 8.77703591488838 0.2963057962656041
v -0.019648008258640767 8.970688301033972 0.5926115925312063
v -0.019679451452195646 9.129878691425322 0.45079468364715786
v -0.33843626189231873 9.129878691425322 0.3187613035202047
v -0.43868871610164645 8.970688301033972 0.4190407195568105
v -0.3159537928104401 8.77703591488838 0.2963057962656041
v -0.43868871610164645 8.970688301033972 0.4190407195568105
v -0.6122641139507294 8.970688301033972 1.9918929397086886e-15
v -0.43868871610164645 8.777035914888382 1.9488934721342014e-15
v -0.4704740865707398 9.129878691425322 2.0272403070509975e-15
v -0.6122641139507294 8.970688301033972 1.9918929397086886e-15
v -0.43868871610164645 8.970688301033972 0.4190407195568105
v -0.33843626189231873 9.129878691425322 0.3187613035202047
v 1.1052880875587465 1.7560802596282938 -1.105288087558746
v 1.0135659324645998 2.1854224741363506 -1.0135659324645991
v 1.433397193145752 2.1854224741363506 4.852612698638904e-16
v 1.5631126593589784 1.7560802596282938 3.899281474658109e-16
v 1.707746075153351 0.8970355192947359 1.9918189748551993e-16
v 2.0324773216247563 1.2028701412200906 2.6709082528333164e-16
v 1.4371794528961184 1.2028701412200906 1.4371794528961188
v 1.2075574310302735 0.8970355192947359 1.2075574310302737
v 1.2075574310302735 0.8970355192947359 1.2075574310302737
v 1.4371794528961184 1.2028701412200906 1.4371794528961188
v 0 1.2028701412200906 2.0324773216247567
v 0 0.8970355192947359 1.7077460751533513
v 1.523385437679291 0.053043081207272635 1.523385437679291
v 1.4327818101882936 0.6750987937164279 1.4327818101882939
v 0 0.6750987937164279 2.0262603044509895
v 0 0.053043081207272635 2.154390190315247
v 2.154390190315247 0.053043081207272635 1.1777930010675205e-17
v 2.026260304450989 0.6750987937164279 1.4990204493612944e-16
v 1.4327818101882936 0.6750987937164279 1.4327818101882939
v 1.523385437679291 0.053043081207272635 1.523385437679291
v 0 1.7560802596282938 -1.563112659358978
v 0 2.1854224741363506 -1.4333971931457514
v 1.0135659324645998 2.1854224741363506 -1.0135659324645991
v 1.1052880875587465 1.7560802596282938 -1.105288087558746
v 0 0.8970355192947359 1.7077460751533513
v 0 1.2028701412200906 2.0324773216247567
v -1.4371794528961184 1.2028701412200906 1.4371794528961188
v -1.2075574310302735 0.8970355192947359 1.2075574310302737
v -1.2075574310302735 0.8970355192947359 1.2075574310302737
v -1.4371794528961184 1.2028701412200906 1.4371794528961188
v -2.0324773216247563 1.2028701412200906 2.6709082528333164e-16
v -1.707746075153351 0.8970355192947359 1.9918189748551993e-16
v -1.523385437679291 0.053043081207272635 1.523385437679291
v -1.4327863082885743 0.6750987937164279 1.4327818101882939
v -2.026260304450989 0.6750987937164279 1.4990204493612944e-16
v -2.154390190315247 0.053043081207272635 1.1777930010675205e-17
v 0 0.053043081207272635 2.154390190315247
v 0 0.6750987937164279 2.0262603044509895
v -1.4327863082885743 0.6750987937164279 1.4327818101882939
v -1.523385437679291 0.053043081207272635 1.523385437679291
v -1.1052880875587465 1.7560802596282938 -1.105288087558746
v -1.013561434364319 2.1854224741363506 -1.0135659324645991
v 0 2.1854224741363506 -1.4333971931457514
v 0 1.7560802596282938 -1.563112659358978
v -2.0324773216247563 1.2028701412200906 2.6709082528333164e-16
v -1.5631126593589784 1.7560802596282938 3.899281474658109e-16
v -1.1052880875587465 1.7560802596282938 -1.105288087558746
v -1.4371749547958375 1.2028701412200906 -1.437179452896118
v -1.4371749547958375 1.2028701412200906 -1.437179452896118
v -1.1052880875587465 1.7560802596282938 -1.105288087558746
v 0 1.7560802596282938 -1.563112659358978
v 0 1.2028701412200906 -2.032477321624756
v -1.4327818101882936 0.6750987937164279 -1.4327863082885741
v -1.2075574310302735 0.8970355192947359 -1.2075619291305542
v 0 0.8970355192947359 -1.7077460751533509
v 0 0.6750987937164279 -2.0262603044509886
v -2.026260304450989 0.6750987937164279 1.4990204493612944e-16
v -1.707746075153351 0.8970355192947359 1.9918189748551993e-16
v -1.2075574310302735 0.8970355192947359 -1.2075619291305542
v -1.4327818101882936 0.6750987937164279 -1.4327863082885741
v -1.5631126593589784 1.7560802596282938 3.899281474658109e-16
v -1.433397193145752 2.1854224741363506 4.852612698638904e-16
v -1.013561434364319 2.1854224741363506 -1.0135659324645991
v -1.1052880875587465 1.7560802596282938 -1.105288087558746
v 0 1.2028701412200906 -2.032477321624756
v 0 1.7560802596282938 -1.563112659358978
v 1.1052880875587465 1.7560802596282938 -1.105288087558746
v 1.4371794528961184 1.2028701412200906 -1.437179452896118
v 1.4371794528961184 1.2028701412200906 -1.437179452896118
v 1.1052880875587465 1.7560802596282938 -1.105288087558746
v 1.5631126593589784 1.7560802596282938 3.899281474658109e-16
v 2.0324773216247563 1.2028701412200906 2.6709082528333164e-16
v 1.4327818101882936 0.6750987937164279 -1.4327818101882934
v 1.2075574310302735 0.8970355192947359 -1.2075574310302732
v 1.707746075153351 0.8970355192947359 1.9918189748551993e-16
v 2.026260304450989 0.6750987937164279 1.4990204493612944e-16
v 0 0.6750987937164279 -2.0262603044509886
v 0 0.8970355192947359 -1.7077460751533509
v 1.2075574310302735 0.8970355192947359 -1.2075574310302732
v 1.4327818101882936 0.6750987937164279 -1.4327818101882934
v 0 1.7560802596282938 1.5631126593589788
v 0 2.1854224741363506 1.4333971931457528
v -1.0135659324645998 2.1854224741363506 1.0135659324646005
v -1.1052880875587465 1.7560802596282938 1.105288087558747
v 0 1.2028701412200906 2.0324773216247567
v 0 1.7560802596282938 1.5631126593589788
v -1.1052880875587465 1.7560802596282938 1.105288087558747
v -1.4371794528961184 1.2028701412200906 1.4371794528961188
v 2.0324773216247563 1.2028701412200906 2.6709082528333164e-16
v 1.5631126593589784 1.7560802596282938 3.899281474658109e-16
v 1.1052880875587465 1.7560802596282938 1.105288087558747
v 1.4371794528961184 1.2028701412200906 1.4371794528961188
v 2.026260304450989 0.6750987937164279 1.4990204493612944e-16
v 1.707746075153351 0.8970355192947359 1.9918189748551993e-16
v 1.2075574310302735 0.8970355192947359 1.2075574310302737
v 1.4327818101882936 0.6750987937164279 1.4327818101882939
v 0 0.6750987937164279 2.0262603044509895
v 0 0.8970355192947359 1.7077460751533513
v -1.2075574310302735 0.8970355192947359 1.2075574310302737
v -1.4327863082885743 0.6750987937164279 1.4327818101882939
v -1.1052880875587465 1.7560802596282938 1.105288087558747
v -1.0135659324645998 2.1854224741363506 1.0135659324646005
v -1.433397193145752 2.1854224741363506 4.852612698638904e-16
v -1.5631126593589784 1.7560802596282938 3.899281474658109e-16
v -1.4371794528961184 1.2028701412200906 1.4371794528961188
v -1.1052880875587465 1.7560802596282938 1.105288087558747
v -1.5631126593589784 1.7560802596282938 3.899281474658109e-16
v -2.0324773216247563 1.2028701412200906 2.6709082528333164e-16
v 1.4371794528961184 1.2028701412200906 1.4371794528961188
v 1.1052880875587465 1.7560802596282938 1.105288087558747
v 0 1.7560802596282938 1.5631126593589788
v 0 1.2028701412200906 2.0324773216247567
v 1.4327818101882936 0.6750987937164279 1.4327818101882939
v 1.2075574310302735 0.8970355192947359 1.2075574310302737
v 0 0.8970355192947359 1.7077460751533513
v 0 0.6750987937164279 2.0262603044509895
v -1.4327863082885743 0.6750987937164279 1.4327818101882939
v -1.2075574310302735 0.8970355192947359 1.2075574310302737
v -1.707746075153351 0.8970355192947359 1.9918189748551993e-16
v -2.026260304450989 0.6750987937164279 1.4990204493612944e-16
v 1.0135659324645998 2.1854224741363506 -1.0135659324645991
v 0.8873047395229341 2.311257440261839 -0.8873047395229336
v 1.254840176010132 2.311257440261839 5.132022452029792e-16
v 1.433397193145752 2.1854224741363506 4.852612698638904e-16
v 1.433397193145752 2.1854224741363506 4.852612698638904e-16
v 1.254840176010132 2.311257440261839 5.132022452029792e-16
v 0.8873047395229341 2.311257440261839 0.8873047395229345
v 1.0135659324645998 2.1854224741363506 1.0135659324646005
v -1.013561434364319 2.1854224741363506 -1.0135659324645991
v -0.8873047395229341 2.311257440261839 -0.8873092376232143
v 0 2.311257440261839 -1.2548401760101313
v 0 2.1854224741363506 -1.4333971931457514
v -1.433397193145752 2.1854224741363506 4.852612698638904e-16
v -1.254840176010132 2.311257440261839 5.132022452029792e-16
v -0.8873047395229341 2.311257440261839 -0.8873092376232143
v -1.013561434364319 2.1854224741363506 -1.0135659324645991
v 0 2.1854224741363506 -1.4333971931457514
v 0 2.311257440261839 -1.2548401760101313
v 0.8873047395229341 2.311257440261839 -0.8873047395229336
v 1.0135659324645998 2.1854224741363506 -1.0135659324645991
v 1.1052880875587465 1.7560802596282938 1.105288087558747
v 1.0135659324645998 2.1854224741363506 1.0135659324646005
v 0 2.1854224741363506 1.4333971931457528
v 0 1.7560802596282938 1.5631126593589788
v -1.707746075153351 0.8970355192947359 1.9918189748551993e-16
v -2.0324773216247563 1.2028701412200906 2.6709082528333164e-16
v -1.4371749547958375 1.2028701412200906 -1.437179452896118
v -1.2075574310302735 0.8970355192947359 -1.2075619291305542
v -1.2075574310302735 0.8970355192947359 -1.2075619291305542
v -1.4371749547958375 1.2028701412200906 -1.437179452896118
v 0 1.2028701412200906 -2.032477321624756
v 0 0.8970355192947359 -1.7077460751533509
v -1.52338093957901 0.053043081207272635 -1.523385437679291
v -1.4327818101882936 0.6750987937164279 -1.4327863082885741
v 0 0.6750987937164279 -2.0262603044509886
v 0 0.053043081207272635 -2.154390190315247
v -2.154390190315247 0.053043081207272635 1.1777930010675205e-17
v -2.026260304450989 0.6750987937164279 1.4990204493612944e-16
v -1.4327818101882936 0.6750987937164279 -1.4327863082885741
v -1.52338093957901 0.053043081207272635 -1.523385437679291
v -1.523385437679291 0.053043081207272635 1.523385437679291
v -2.154390190315247 0.053043081207272635 1.1777930010675205e-17
v -1.52338093957901 0.053043081207272635 -1.523385437679291
v 0 0.053043081207272635 -2.154390190315247
v 1.523385437679291 0.053043081207272635 -1.523385437679291
v 2.154390190315247 0.053043081207272635 1.1777930010675205e-17
v 1.523385437679291 0.053043081207272635 1.523385437679291
v 0 0.053043081207272635 2.154390190315247
v 0 0.053043081207272635 -2.154390190315247
v 0 0.6750987937164279 -2.0262603044509886
v 1.4327818101882936 0.6750987937164279 -1.4327818101882934
v 1.523385437679291 0.053043081207272635 -1.523385437679291
v 1.523385437679291 0.053043081207272635 -1.523385437679291
v 1.4327818101882936 0.6750987937164279 -1.4327818101882934
v 2.026260304450989 0.6750987937164279 1.4990204493612944e-16
v 2.154390190315247 0.053043081207272635 1.1777930010675205e-17
v 1.2075574310302735 0.8970355192947359 -1.2075574310302732
v 1.4371794528961184 1.2028701412200906 -1.437179452896118
v 2.0324773216247563 1.2028701412200906 2.6709082528333164e-16
v 1.707746075153351 0.8970355192947359 1.9918189748551993e-16
v 0 0.8970355192947359 -1.7077460751533509
v 0 1.2028701412200906 -2.032477321624756
v 1.4371794528961184 1.2028701412200906 -1.437179452896118
v 1.2075574310302735 0.8970355192947359 -1.2075574310302732
v 1.5631126593589784 1.7560802596282938 3.899281474658109e-16
v 1.433397193145752 2.1854224741363506 4.852612698638904e-16
v 1.0135659324645998 2.1854224741363506 1.0135659324646005
v 1.1052880875587465 1.7560802596282938 1.105288087558747
v -1.0135659324645998 2.1854224741363506 1.0135659324646005
v -0.8873047395229341 2.311257440261839 0.8873047395229345
v -1.254840176010132 2.311257440261839 5.132022452029792e-16
v -1.433397193145752 2.1854224741363506 4.852612698638904e-16
v 1.0135659324645998 2.1854224741363506 1.0135659324646005
v 0.8873047395229341 2.311257440261839 0.8873047395229345
v 0 2.311257440261839 1.2548401760101326
v 0 2.1854224741363506 1.4333971931457528
v 0 2.1854224741363506 1.4333971931457528
v 0 2.311257440261839 1.2548401760101326
v -0.8873047395229341 2.311257440261839 0.8873047395229345
v -1.0135659324645998 2.1854224741363506 1.0135659324646005
v -0.8873047395229341 2.311257440261839 0.8873047395229345
v 0 2.311257440261839 1.2548401760101326
v 0 4.268615016822813 0.825171409368516
v -0.5834838225364686 4.268615016822813 0.5834838225364695
v 0 2.311257440261839 1.2548401760101326
v 0.8873047395229341 2.311257440261839 0.8873047395229345
v 0.5834838225364686 4.268615016822813 0.5834838225364695
v 0 4.268615016822813 0.825171409368516
v 1.254840176010132 2.311257440261839 5.132022452029792e-16
v 0.8873047395229341 2.311257440261839 -0.8873047395229336
v 0.5834838225364686 4.268615016822813 -0.5834838225364677
v 0.8251714093685151 4.268615016822813 9.478229349874774e-16
v -1.254840176010132 2.311257440261839 5.132022452029792e-16
v -0.8873047395229341 2.311257440261839 0.8873047395229345
v -0.5834838225364686 4.268615016822813 0.5834838225364695
v -0.8251714093685151 4.268615016822813 9.478229349874774e-16
v 0 2.311257440261839 -1.2548401760101313
v -0.8873047395229341 2.311257440261839 -0.8873092376232143
v -0.5834838225364686 4.268615016822813 -0.5834838225364677
v 0 4.268615016822813 -0.8251714093685142
v 0.8873047395229341 2.311257440261839 0.8873047395229345
v 1.254840176010132 2.311257440261839 5.132022452029792e-16
v 0.8251714093685151 4.268615016822813 9.478229349874774e-16
v 0.5834838225364686 4.268615016822813 0.5834838225364695
v 0.8873047395229341 2.311257440261839 -0.8873047395229336
v 0 2.311257440261839 -1.2548401760101313
v 0 4.268615016822813 -0.8251714093685142
v 0.5834838225364686 4.268615016822813 -0.5834838225364677
v -0.8873047395229341 2.311257440261839 -0.8873092376232143
v -1.254840176010132 2.311257440261839 5.132022452029792e-16
v -0.8251714093685151 4.268615016822813 9.478229349874774e-16
v -0.5834838225364686 4.268615016822813 -0.5834838225364677
v 0.5834838225364686 4.268615016822813 0.5834838225364695
v 0.8251714093685151 4.268615016822813 9.478229349874774e-16
v 0.8251714093685151 6.145257710971831 1.3645213205952424e-15
v 0.5834838225364686 6.145257710971831 0.5834838225364699
v 0.8251714093685151 4.268615016822813 9.478229349874774e-16
v 0.5834838225364686 4.268615016822813 -0.5834838225364677
v 0.5834838225364686 6.145257710971831 -0.5834838225364672
v 0.8251714093685151 6.145257710971831 1.3645213205952424e-15
v -0.5834838225364686 4.268615016822813 -0.5834838225364677
v -0.8251714093685151 4.268615016822813 9.478229349874774e-16
v -0.8251714093685151 6.145257710971831 1.3645213205952424e-15
v -0.5834838225364686 6.145257710971831 -0.5834838225364672
v -0.5834838225364686 4.268615016822813 0.5834838225364695
v 0 4.268615016822813 0.825171409368516
v 0 6.145257710971831 0.8251714093685164
v -0.5834838225364686 6.145257710971831 0.5834838225364699
v 0 4.268615016822813 0.825171409368516
v 0.5834838225364686 4.268615016822813 0.5834838225364695
v 0.5834838225364686 6.145257710971831 0.5834838225364699
v 0 6.145257710971831 0.8251714093685164
v 0.5834838225364686 4.268615016822813 -0.5834838225364677
v 0 4.268615016822813 -0.8251714093685142
v 0 6.145257710971831 -0.8251714093685137
v 0.5834838225364686 6.145257710971831 -0.5834838225364672
v 0 4.268615016822813 -0.8251714093685142
v -0.5834838225364686 4.268615016822813 -0.5834838225364677
v -0.5834838225364686 6.145257710971831 -0.5834838225364672
v 0 6.145257710971831 -0.8251714093685137
v -0.8251714093685151 4.268615016822813 9.478229349874774e-16
v -0.5834838225364686 4.268615016822813 0.5834838225364695
v -0.5834838225364686 6.145257710971831 0.5834838225364699
v -0.8251714093685151 6.145257710971831 1.3645213205952424e-15
v -0.8251714093685151 6.145257710971831 1.3645213205952424e-15
v -0.5834838225364686 6.145257710971831 0.5834838225364699
v -1.1559802854537966 6.30668985147476 1.1559802854537982
v -1.6348004899978639 6.3066898514747605 1.4003664564554176e-15
v 0.5834838225364686 6.145257710971831 0.5834838225364699
v 0.8251714093685151 6.145257710971831 1.3645213205952424e-15
v 1.6348004899978639 6.3066898514747605 1.4003664564554176e-15
v 1.1559802854537966 6.30668985147476 1.1559802854537982
v 0.8251714093685151 6.145257710971831 1.3645213205952424e-15
v 0.5834838225364686 6.145257710971831 -0.5834838225364672
v 1.1559802854537966 6.306689851474761 -1.155980285453795
v 1.6348004899978639 6.3066898514747605 1.4003664564554176e-15
v -0.5834838225364686 6.145257710971831 -0.5834838225364672
v -0.8251714093685151 6.145257710971831 1.3645213205952424e-15
v -1.6348004899978639 6.3066898514747605 1.4003664564554176e-15
v -1.1559757873535157 6.306689851474761 -1.155980285453795
v -0.5834838225364686 6.145257710971831 0.5834838225364699
v 0 6.145257710971831 0.8251714093685164
v 0 6.30668985147476 1.6348004899978654
v -1.1559802854537966 6.30668985147476 1.1559802854537982
v 0 6.145257710971831 0.8251714093685164
v 0.5834838225364686 6.145257710971831 0.5834838225364699
v 1.1559802854537966 6.30668985147476 1.1559802854537982
v 0 6.30668985147476 1.6348004899978654
v 0.5834838225364686 6.145257710971831 -0.5834838225364672
v 0 6.145257710971831 -0.8251714093685137
v 0 6.306689851474761 -1.6348004899978623
v 1.1559802854537966 6.306689851474761 -1.155980285453795
v 0 6.145257710971831 -0.8251714093685137
v -0.5834838225364686 6.145257710971831 -0.5834838225364672
v -1.1559757873535157 6.306689851474761 -1.155980285453795
v 0 6.306689851474761 -1.6348004899978623
v 0 6.30668985147476 1.6348004899978654
v 1.1559802854537966 6.30668985147476 1.1559802854537982
v 0.6698470266342164 6.629554726400374 0.6900251296520248
v -0.02017806452959776 6.629554726400374 0.9758420789718644
v 1.1559802854537966 6.306689851474761 -1.155980285453795
v 0 6.306689851474761 -1.6348004899978623
v -0.02017806452959776 6.629554726400374 -0.9758420789718615
v 0.6698470266342164 6.629554726400374 -0.6900251296520219
v 0 6.306689851474761 -1.6348004899978623
v -1.1559757873535157 6.306689851474761 -1.155980285453795
v -0.7102031791210175 6.629554726400374 -0.6900251296520219
v -0.02017806452959776 6.629554726400374 -0.9758420789718615
v -1.6348004899978639 6.3066898514747605 1.4003664564554176e-15
v -1.1559802854537966 6.30668985147476 1.1559802854537982
v -0.7102031791210175 6.629554726400374 0.6900251296520248
v -0.9960201284408571 6.629554726400374 1.4720568600524451e-15
v 1.1559802854537966 6.30668985147476 1.1559802854537982
v 1.6348004899978639 6.3066898514747605 1.4003664564554176e-15
v 0.9556640295028688 6.629554726400374 1.4720568600524451e-15
v 0.6698470266342164 6.629554726400374 0.6900251296520248
v 1.6348004899978639 6.3066898514747605 1.4003664564554176e-15
v 1.1559802854537966 6.306689851474761 -1.155980285453795
v 0.6698470266342164 6.629554726400374 -0.6900251296520219
v 0.9556640295028688 6.629554726400374 1.4720568600524451e-15
v -1.1559757873535157 6.306689851474761 -1.155980285453795
v -1.6348004899978639 6.3066898514747605 1.4003664564554176e-15
v -0.9960201284408571 6.629554726400374 1.4720568600524451e-15
v -0.7102031791210175 6.629554726400374 -0.6900251296520219
v -1.1559802854537966 6.30668985147476 1.1559802854537982
v 0 6.30668985147476 1.6348004899978654
v -0.02017806452959776 6.629554726400374 0.9758420789718644
v -0.7102031791210175 6.629554726400374 0.6900251296520248
v -0.7102031791210175 6.629554726400374 -0.6900251296520219
v -0.9960201284408571 6.629554726400374 1.4720568600524451e-15
v -0.9740408040046693 6.79098488717079 1.5079015563236964e-15
v -0.6946563522815705 6.79098488717079 -0.6744828009128557
v -0.7102031791210175 6.629554726400374 0.6900251296520248
v -0.02017806452959776 6.629554726400374 0.9758420789718644
v -0.02017806452959776 6.79098488717079 0.9538582564353958
v -0.6946608503818512 6.79098488717079 0.6744783028125778
v -0.02017806452959776 6.629554726400374 0.9758420789718644
v 0.6698470266342164 6.629554726400374 0.6900251296520248
v 0.6543002533435822 6.79098488717079 0.6744783028125778
v -0.02017806452959776 6.79098488717079 0.9538582564353958
v 0.6698470266342164 6.629554726400374 -0.6900251296520219
v -0.02017806452959776 6.629554726400374 -0.9758420789718615
v -0.02017806452959776 6.79098488717079 -0.9538582564353929
v 0.6543002533435822 6.79098488717079 -0.6744828009128557
v -0.02017806452959776 6.629554726400374 -0.9758420789718615
v -0.7102031791210175 6.629554726400374 -0.6900251296520219
v -0.6946563522815705 6.79098488717079 -0.6744828009128557
v -0.02017806452959776 6.79098488717079 -0.9538582564353929
v -0.9960201284408571 6.629554726400374 1.4720568600524451e-15
v -0.7102031791210175 6.629554726400374 0.6900251296520248
v -0.6946608503818512 6.79098488717079 0.6744783028125778
v -0.9740408040046693 6.79098488717079 1.5079015563236964e-15
v 0.6698470266342164 6.629554726400374 0.6900251296520248
v 0.9556640295028688 6.629554726400374 1.4720568600524451e-15
v 0.9336802069664002 6.79098488717079 1.5079015563236964e-15
v 0.6543002533435822 6.79098488717079 0.6744783028125778
v 0.9556640295028688 6.629554726400374 1.4720568600524451e-15
v 0.6698470266342164 6.629554726400374 -0.6900251296520219
v 0.6543002533435822 6.79098488717079 -0.6744828009128557
v 0.9336802069664002 6.79098488717079 1.5079015563236964e-15
v 0.6543002533435822 6.79098488717079 0.6744783028125778
v 0.9336802069664002 6.79098488717079 1.5079015563236964e-15
v 0.7481515627861024 6.87170016552925 1.5258239484182145e-15
v 0.52311583609581 6.87170016552925 0.5432939391136185
v 0.9336802069664002 6.79098488717079 1.5079015563236964e-15
v 0.6543002533435822 6.79098488717079 -0.6744828009128557
v 0.52311583609581 6.87170016552925 -0.5432939391136156
v 0.7481515627861024 6.87170016552925 1.5258239484182145e-15
v -0.6946563522815705 6.79098488717079 -0.6744828009128557
v -0.9740408040046693 6.79098488717079 1.5079015563236964e-15
v -0.7885122133731843 6.87170016552925 1.5258239484182145e-15
v -0.5634719885826112 6.87170016552925 -0.5432939391136156
v -0.6946608503818512 6.79098488717079 0.6744783028125778
v -0.02017806452959776 6.79098488717079 0.9538582564353958
v -0.02017806452959776 6.87170016552925 0.7683296658039108
v -0.5634719885826112 6.87170016552925 0.5432939391136185
v -0.02017806452959776 6.79098488717079 0.9538582564353958
v 0.6543002533435822 6.79098488717079 0.6744783028125778
v 0.52311583609581 6.87170016552925 0.5432939391136185
v -0.02017806452959776 6.87170016552925 0.7683296658039108
v 0.6543002533435822 6.79098488717079 -0.6744828009128557
v -0.02017806452959776 6.79098488717079 -0.9538582564353929
v -0.02017806452959776 6.87170016552925 -0.7683341639041887
v 0.52311583609581 6.87170016552925 -0.5432939391136156
v -0.02017806452959776 6.79098488717079 -0.9538582564353929
v -0.6946563522815705 6.79098488717079 -0.6744828009128557
v -0.5634719885826112 6.87170016552925 -0.5432939391136156
v -0.02017806452959776 6.87170016552925 -0.7683341639041887
v -0.9740408040046693 6.79098488717079 1.5079015563236964e-15
v -0.6946608503818512 6.79098488717079 0.6744783028125778
v -0.5634719885826112 6.87170016552925 0.5432939391136185
v -0.7885122133731843 6.87170016552925 1.5258239484182145e-15
v -0.02017806452959776 7.41646613084793 -0.7995939795494065
v -0.5855770991802216 7.41646613084793 -0.5653990497112259
v -0.9059960062026978 8.393116881141662 -0.8858224012851699
v -0.02017806452959776 8.393116881141662 -1.2527379567146282
v -0.8197720290184022 7.41646613084793 1.646786291964004e-15
v -0.5855770991802216 7.41646613084793 0.565399049711229
v -0.9060005043029786 8.393116881141662 0.8858179031848926
v -1.2729160061836244 8.393116881141662 1.8636463219627113e-15
v 0.5452210002422333 7.41646613084793 0.565399049711229
v 0.7794159300804139 7.41646613084793 1.646786291964004e-15
v 1.2325599072456361 8.393116881141662 1.8636463219627113e-15
v 0.8656398537158967 8.393116881141662 0.8858179031848926
v 0.7794159300804139 7.41646613084793 1.646786291964004e-15
v 0.5452210002422333 7.41646613084793 -0.5653990497112259
v 0.8656398537158967 8.393116881141662 -0.8858179031848891
v 1.2325599072456361 8.393116881141662 1.8636463219627113e-15
v -0.5855770991802216 7.41646613084793 -0.5653990497112259
v -0.8197720290184022 7.41646613084793 1.646786291964004e-15
v -1.2729160061836244 8.393116881141662 1.8636463219627113e-15
v -0.9059960062026978 8.393116881141662 -0.8858224012851699
v -0.5855770991802216 7.41646613084793 0.565399049711229
v -0.02017806452959776 7.41646613084793 0.7995939795494096
v -0.02017806452959776 8.393116881141662 1.2527379567146322
v -0.9060005043029786 8.393116881141662 0.8858179031848926
v -0.02017806452959776 7.41646613084793 0.7995939795494096
v 0.5452210002422333 7.41646613084793 0.565399049711229
v 0.8656398537158967 8.393116881141662 0.8858179031848926
v -0.02017806452959776 8.393116881141662 1.2527379567146322
v 0.5452210002422333 7.41646613084793 -0.5653990497112259
v -0.02017806452959776 7.41646613084793 -0.7995939795494065
v -0.02017806452959776 8.393116881141662 -1.2527379567146282
v 0.8656398537158967 8.393116881141662 -0.8858179031848891
v 0.52311583609581 6.87170016552925 -0.5432939391136156
v -0.02017806452959776 6.87170016552925 -0.7683341639041887
v -0.02017806452959776 7.41646613084793 -0.7995939795494065
v 0.5452210002422333 7.41646613084793 -0.5653990497112259
v -0.02017806452959776 6.87170016552925 0.7683296658039108
v 0.52311583609581 6.87170016552925 0.5432939391136185
v 0.5452210002422333 7.41646613084793 0.565399049711229
v -0.02017806452959776 7.41646613084793 0.7995939795494096
v -0.5634719885826112 6.87170016552925 0.5432939391136185
v -0.02017806452959776 6.87170016552925 0.7683296658039108
v -0.02017806452959776 7.41646613084793 0.7995939795494096
v -0.5855770991802216 7.41646613084793 0.565399049711229
v -0.5634719885826112 6.87170016552925 -0.5432939391136156
v -0.7885122133731843 6.87170016552925 1.5258239484182145e-15
v -0.8197720290184022 7.41646613084793 1.646786291964004e-15
v -0.5855770991802216 7.41646613084793 -0.5653990497112259
v 0.7481515627861024 6.87170016552925 1.5258239484182145e-15
v 0.52311583609581 6.87170016552925 -0.5432939391136156
v 0.5452210002422333 7.41646613084793 -0.5653990497112259
v 0.7794159300804139 7.41646613084793 1.646786291964004e-15
v 0.52311583609581 6.87170016552925 0.5432939391136185
v 0.7481515627861024 6.87170016552925 1.5258239484182145e-15
v 0.7794159300804139 7.41646613084793 1.646786291964004e-15
v 0.5452210002422333 7.41646613084793 0.565399049711229
v -0.7885122133731843 6.87170016552925 1.5258239484182145e-15
v -0.5634719885826112 6.87170016552925 0.5432939391136185
v -0.5855770991802216 7.41646613084793 0.565399049711229
v -0.8197720290184022 7.41646613084793 1.646786291964004e-15
v -0.02017806452959776 6.87170016552925 -0.7683341639041887
v -0.5634719885826112 6.87170016552925 -0.5432939391136156
v -0.5855770991802216 7.41646613084793 -0.5653990497112259
v -0.02017806452959776 7.41646613084793 -0.7995939795494065
v -0.02017806452959776 8.393116881141662 1.2527379567146322
v 0.8656398537158967 8.393116881141662 0.8858179031848926
v 0.7798740937232972 8.566734770197867 0.8000521431922932
v -0.02017806452959776 8.566734770197867 1.1314449690818809
v 0.8656398537158967 8.393116881141662 -0.8858179031848891
v -0.02017806452959776 8.393116881141662 -1.2527379567146282
v -0.02017806452959776 8.566734770197868 -1.1314449690818769
v 0.7798740937232972 8.566734770197868 -0.8000521431922895
v -0.02017806452959776 8.393116881141662 -1.2527379567146282
v -0.9059960062026978 8.393116881141662 -0.8858224012851699
v -0.8202301926612855 8.566734770197868 -0.8000521431922895
v -0.02017806452959776 8.566734770197868 -1.1314449690818769
v -1.2729160061836244 8.393116881141662 1.8636463219627113e-15
v -0.9060005043029786 8.393116881141662 0.8858179031848926
v -0.8202301926612855 8.566734770197867 0.8000521431922932
v -1.151623018550873 8.566734770197867 1.902197237546114e-15
v 0.8656398537158967 8.393116881141662 0.8858179031848926
v 1.2325599072456361 8.393116881141662 1.8636463219627113e-15
v 1.1112669196128846 8.566734770197867 1.902197237546114e-15
v 0.7798740937232972 8.566734770197867 0.8000521431922932
v 1.2325599072456361 8.393116881141662 1.8636463219627113e-15
v 0.8656398537158967 8.393116881141662 -0.8858179031848891
v 0.7798740937232972 8.566734770197868 -0.8000521431922895
v 1.1112669196128846 8.566734770197867 1.902197237546114e-15
v -0.9059960062026978 8.393116881141662 -0.8858224012851699
v -1.2729160061836244 8.393116881141662 1.8636463219627113e-15
v -1.151623018550873 8.566734770197867 1.902197237546114e-15
v -0.8202301926612855 8.566734770197868 -0.8000521431922895
v -0.9060005043029786 8.393116881141662 0.8858179031848926
v -0.02017806452959776 8.393116881141662 1.2527379567146322
v -0.02017806452959776 8.566734770197867 1.1314449690818809
v -0.8202301926612855 8.566734770197867 0.8000521431922932
v 0.7798740937232972 8.566734770197867 0.8000521431922932
v 1.1112669196128846 8.566734770197867 1.902197237546114e-15
v 0.40935146348476414 8.693306493778227 1.9303018059031955e-15
v 0.2835260507822037 8.693306493778227 0.3037625220060368
v 1.1112669196128846 8.566734770197867 1.902197237546114e-15
v 0.7798740937232972 8.566734770197868 -0.8000521431922895
v 0.2835260507822037 8.693306493778227 -0.30376252200603293
v 0.40935146348476414 8.693306493778227 1.9303018059031955e-15
v -0.8202301926612855 8.566734770197868 -0.8000521431922895
v -1.151623018550873 8.566734770197867 1.902197237546114e-15
v -0.44982437915802004 8.693306493778227 1.9303018059031955e-15
v -0.3239989664554596 8.693306493778227 -0.30376252200603293
v -0.8202301926612855 8.566734770197867 0.8000521431922932
v -0.02017806452959776 8.566734770197867 1.1314449690818809
v -0.020236459510028365 8.693306493778227 0.42958793470859724
v -0.3239989664554596 8.693306493778227 0.3037625220060368
v -0.02017806452959776 8.566734770197867 1.1314449690818809
v 0.7798740937232972 8.566734770197867 0.8000521431922932
v 0.2835260507822037 8.693306493778227 0.3037625220060368
v -0.020236459510028365 8.693306493778227 0.42958793470859724
v 0.7798740937232972 8.566734770197868 -0.8000521431922895
v -0.02017806452959776 8.566734770197868 -1.1314449690818769
v -0.020236459510028365 8.693306493778227 -0.42958793470859336
v 0.2835260507822037 8.693306493778227 -0.30376252200603293
v -0.02017806452959776 8.566734770197868 -1.1314449690818769
v -0.8202301926612855 8.566734770197868 -0.8000521431922895
v -0.3239989664554596 8.693306493778227 -0.30376252200603293
v -0.020236459510028365 8.693306493778227 -0.42958793470859336
v -1.151623018550873 8.566734770197867 1.902197237546114e-15
v -0.8202301926612855 8.566734770197867 0.8000521431922932
v -0.3239989664554596 8.693306493778227 0.3037625220060368
v -0.44982437915802004 8.693306493778227 1.9303018059031955e-15
v -0.43868871610164645 8.777035914888382 1.9488934721342014e-15
v -0.44982437915802004 8.693306493778227 1.9303018059031955e-15
v -0.3239989664554596 8.693306493778227 0.3037625220060368
v -0.3159537928104401 8.77703591488838 0.2963057962656041
v -0.3159537928104401 8.77703591488838 0.2963057962656041
v -0.3239989664554596 8.693306493778227 0.3037625220060368
v -0.020236459510028365 8.693306493778227 0.42958793470859724
v -0.019648008258640767 8.77703591488838 0.41904071955681044
v -0.019648008258640767 8.77703591488838 0.41904071955681044
v -0.020236459510028365 8.693306493778227 0.42958793470859724
v 0.2835260507822037 8.693306493778227 0.3037625220060368
v 0.2766577997207642 8.77703591488838 0.2963057962656041
v 0.2766577997207642 8.77703591488838 0.2963057962656041
v 0.2835260507822037 8.693306493778227 0.3037625220060368
v 0.40935146348476414 8.693306493778227 1.9303018059031955e-15
v 0.3993926962375641 8.777035914888382 1.9488934721342014e-15
v 0.3993926962375641 8.777035914888382 1.9488934721342014e-15
v 0.40935146348476414 8.693306493778227 1.9303018059031955e-15
v 0.2835260507822037 8.693306493778227 -0.30376252200603293
v 0.2766577997207642 8.777035914888382 -0.2963057962656002
v 0.2766577997207642 8.777035914888382 -0.2963057962656002
v 0.2835260507822037 8.693306493778227 -0.30376252200603293
v -0.020236459510028365 8.693306493778227 -0.42958793470859336
v -0.019648008258640767 8.777035914888382 -0.41904071955680655
v -0.019648008258640767 8.777035914888382 -0.41904071955680655
v -0.020236459510028365 8.693306493778227 -0.42958793470859336
v -0.3239989664554596 8.693306493778227 -0.30376252200603293
v -0.31595829091072086 8.777035914888382 -0.2963057962656002
v -0.31595829091072086 8.777035914888382 -0.2963057962656002
v -0.3239989664554596 8.693306493778227 -0.30376252200603293
v -0.44982437915802004 8.693306493778227 1.9303018059031955e-15
v -0.43868871610164645 8.777035914888382 1.9488934721342014e-15
v -0.33843626189231873 9.129878691425322 0.3187613035202047
v -0.019679451452195646 9.129878691425322 0.45079468364715786
v -0.19219022359848023 9.413562853404283 0.41648028306961277
v -0.019679451452195646 9.129878691425322 0.45079468364715786
v 0.2990818470478058 9.129878691425322 0.3187613035202047
v 0.15283131065368655 9.413562853404283 0.41648028306961277
v 0.2990818470478058 9.129878691425322 0.3187613035202047
v 0.4311152004003525 9.129878691425322 2.0272403070509975e-15
v 0.3968008265972138 9.413562853404283 0.17251076712608548
v 0.4311152004003525 9.129878691425322 2.0272403070509975e-15
v 0.2990818470478058 9.129878691425322 -0.3187613035202006
v 0.3968008265972138 9.413562853404283 -0.17251076712608132
v -0.019679451452195646 9.129878691425322 -0.45079468364715375
v 0.15283131065368655 9.413562853404283 -0.41648028306960855
v 0.2990818470478058 9.129878691425322 -0.3187613035202006
v -0.33843626189231873 9.129878691425322 -0.3187613035202006
v -0.19219022359848023 9.413562853404283 -0.41648028306960855
v -0.019679451452195646 9.129878691425322 -0.45079468364715375
v -0.33843626189231873 9.129878691425322 -0.3187613035202006
v -0.4704740865707398 9.129878691425322 2.0272403070509975e-15
v -0.43615971276760107 9.413562853404283 -0.17251076712608132
v -0.4704740865707398 9.129878691425322 2.0272403070509975e-15
v -0.33843626189231873 9.129878691425322 0.3187613035202047
v -0.43615971276760107 9.413562853404283 0.17251076712608548
v -0.019679451452195646 9.2161696884346 2.0464007573905098e-15
v -0.19219022359848023 9.413562853404283 -0.41648028306960855
v -0.33843626189231873 9.129878691425322 -0.3187613035202006
v -0.33843626189231873 9.129878691425322 -0.3187613035202006
v -0.43615971276760107 9.413562853404283 -0.17251076712608132
v -0.019679451452195646 9.2161696884346 2.0464007573905098e-15
v -0.019679451452195646 9.2161696884346 2.0464007573905098e-15
v -0.43615971276760107 9.413562853404283 -0.17251076712608132
v -0.4704740865707398 9.129878691425322 2.0272403070509975e-15
v -0.019679451452195646 9.2161696884346 2.0464007573905098e-15
v -0.4704740865707398 9.129878691425322 2.0272403070509975e-15
v -0.43615971276760107 9.413562853404283 0.17251076712608548
v -0.019679451452195646 9.2161696884346 2.0464007573905098e-15
v -0.43615971276760107 9.413562853404283 0.17251076712608548
v -0.33843626189231873 9.129878691425322 0.3187613035202047
v -0.019679451452195646 9.2161696884346 2.0464007573905098e-15
v -0.33843626189231873 9.129878691425322 0.3187613035202047
v -0.19219022359848023 9.413562853404283 0.41648028306961277
v -0.019679451452195646 9.2161696884346 2.0464007573905098e-15
v -0.19219022359848023 9.413562853404283 0.41648028306961277
v -0.019679451452195646 9.129878691425322 0.45079468364715786
v -0.019679451452195646 9.2161696884346 2.0464007573905098e-15
v -0.019679451452195646 9.129878691425322 0.45079468364715786
v 0.15283131065368655 9.413562853404283 0.41648028306961277
v -0.019679451452195646 9.2161696884346 2.0464007573905098e-15
v 0.15283131065368655 9.413562853404283 0.41648028306961277
v 0.2990818470478058 9.129878691425322 0.3187613035202047
v -0.019679451452195646 9.2161696884346 2.0464007573905098e-15
v 0.2990818470478058 9.129878691425322 0.3187613035202047
v 0.3968008265972138 9.413562853404283 0.17251076712608548
v -0.019679451452195646 9.2161696884346 2.0464007573905098e-15
v 0.3968008265972138 9.413562853404283 0.17251076712608548
v 0.4311152004003525 9.129878691425322 2.0272403070509975e-15
v -0.019679451452195646 9.2161696884346 2.0464007573905098e-15
v 0.4311152004003525 9.129878691425322 2.0272403070509975e-15
v 0.3968008265972138 9.413562853404283 -0.17251076712608132
v -0.019679451452195646 9.2161696884346 2.0464007573905098e-15
v 0.3968008265972138 9.413562853404283 -0.17251076712608132
v 0.2990818470478058 9.129878691425322 -0.3187613035202006
v 0.2990818470478058 9.129878691425322 -0.3187613035202006
v 0.15283131065368655 9.413562853404283 -0.41648028306960855
v -0.019679451452195646 9.2161696884346 2.0464007573905098e-15
v 0.15283131065368655 9.413562853404283 -0.41648028306960855
v -0.019679451452195646 9.129878691425322 -0.45079468364715375
v -0.019679451452195646 9.2161696884346 2.0464007573905098e-15
v -0.019679451452195646 9.2161696884346 2.0464007573905098e-15
v -0.019679451452195646 9.129878691425322 -0.45079468364715375
v -0.19219022359848023 9.413562853404283 -0.41648028306960855
vn -0.7133964407227532 0.6354118150832518 -0.2954950822208631
vn -0.7133964407227532 0.6354118150832518 -0.2954950822208631
vn -0.7133964407227532 0.6354118150832518 -0.2954950822208631
vn -0.7133964407227532 0.6354118150832518 -0.2954950822208631
vn -0.7115768089132865 -0.6377955360758176 -0.2947461605832125
vn -0.7115768089132865 -0.6377955360758176 -0.2947461605832125
vn -0.7115768089132865 -0.6377955360758176 -0.2947461605832125
vn -0.7115768089132865 -0.6377955360758176 -0.2947461605832125
vn -0.29548513976590535 0.6354619410558491 -0.7133559095199647
vn -0.29548513976590535 0.6354619410558491 -0.7133559095199647
vn -0.29548513976590535 0.6354619410558491 -0.7133559095199647
vn -0.29548513976590535 0.6354619410558491 -0.7133559095199647
vn -0.29474616058321235 -0.6377955360758176 -0.7115768089132866
vn -0.29474616058321235 -0.6377955360758176 -0.7115768089132866
vn -0.29474616058321235 -0.6377955360758176 -0.7115768089132866
vn -0.29474616058321235 -0.6377955360758176 -0.7115768089132866
vn 0.29546427570605255 0.6355242615804979 -0.7133090317135069
vn 0.29546427570605255 0.6355242615804979 -0.7133090317135069
vn 0.29546427570605255 0.6355242615804979 -0.7133090317135069
vn 0.29546427570605255 0.6355242615804979 -0.7133090317135069
vn 0.29474616058321235 -0.6377955360758176 -0.7115768089132866
vn 0.29474616058321235 -0.6377955360758176 -0.7115768089132866
vn 0.29474616058321235 -0.6377955360758176 -0.7115768089132866
vn 0.29474616058321235 -0.6377955360758176 -0.7115768089132866
vn 0.7132743012588096 0.6355721689531043 -0.2954450697100959
vn 0.7132743012588096 0.6355721689531043 -0.2954450697100959
vn 0.7132743012588096 0.6355721689531043 -0.2954450697100959
vn 0.7132743012588096 0.6355721689531043 -0.2954450697100959
vn 0.7115768089132865 -0.6377955360758176 -0.2947461605832125
vn 0.7115768089132865 -0.6377955360758176 -0.2947461605832125
vn 0.7115768089132865 -0.6377955360758176 -0.2947461605832125
vn 0.7115768089132865 -0.6377955360758176 -0.2947461605832125
vn 0.7115768089132865 -0.6377955360758178 0.29474616058321224
vn 0.7115768089132865 -0.6377955360758178 0.29474616058321224
vn 0.7115768089132865 -0.6377955360758178 0.29474616058321224
vn 0.7115768089132865 -0.6377955360758178 0.29474616058321224
vn 0.7132743012588096 0.6355721689531041 0.29544506971009615
vn 0.7132743012588096 0.6355721689531041 0.29544506971009615
vn 0.7132743012588096 0.6355721689531041 0.29544506971009615
vn 0.7132743012588096 0.6355721689531041 0.29544506971009615
vn 0.2947461605832123 -0.6377955360758177 0.711576808913286
vn 0.2947461605832123 -0.6377955360758177 0.711576808913286
vn 0.2947461605832123 -0.6377955360758177 0.711576808913286
vn 0.2947461605832123 -0.6377955360758177 0.711576808913286
vn 0.2954642757060525 0.6355242615804975 0.7133090317135071
vn 0.2954642757060525 0.6355242615804975 0.7133090317135071
vn 0.2954642757060525 0.6355242615804975 0.7133090317135071
vn 0.2954642757060525 0.6355242615804975 0.7133090317135071
vn -0.2947461605832123 -0.6377955360758177 0.711576808913286
vn -0.2947461605832123 -0.6377955360758177 0.711576808913286
vn -0.2947461605832123 -0.6377955360758177 0.711576808913286
vn -0.2947461605832123 -0.6377955360758177 0.711576808913286
vn -0.29548513976590535 0.6354619410558487 0.7133559095199651
vn -0.29548513976590535 0.6354619410558487 0.7133559095199651
vn -0.29548513976590535 0.6354619410558487 0.7133559095199651
vn -0.29548513976590535 0.6354619410558487 0.7133559095199651
vn -0.7115768089132865 -0.6377955360758178 0.29474616058321224
vn -0.7115768089132865 -0.6377955360758178 0.29474616058321224
vn -0.7115768089132865 -0.6377955360758178 0.29474616058321224
vn -0.7115768089132865 -0.6377955360758178 0.29474616058321224
vn -0.7133964407227532 0.6354118150832517 0.2954950822208634
vn -0.7133964407227532 0.6354118150832517 0.2954950822208634
vn -0.7133964407227532 0.6354118150832517 0.2954950822208634
vn -0.7133964407227532 0.6354118150832517 0.2954950822208634
vn 0.8898661122934189 0.2688422146439801 -0.3685948532157175
vn 0.8898661122934189 0.2688422146439801 -0.3685948532157175
vn 0.8898661122934189 0.2688422146439801 -0.3685948532157175
vn 0.8898661122934189 0.2688422146439801 -0.3685948532157175
vn 0.6595275030361657 -0.7002808701821263 0.27318524044289927
vn 0.6595275030361657 -0.7002808701821263 0.27318524044289927
vn 0.6595275030361657 -0.7002808701821263 0.27318524044289927
vn 0.6595275030361657 -0.7002808701821263 0.27318524044289927
vn 0.27318524044289944 -0.7002808701821263 0.6595275030361656
vn 0.27318524044289944 -0.7002808701821263 0.6595275030361656
vn 0.27318524044289944 -0.7002808701821263 0.6595275030361656
vn 0.27318524044289944 -0.7002808701821263 0.6595275030361656
vn 0.3759350820566622 0.1869330073366508 0.9075950996160823
vn 0.3759350820566622 0.1869330073366508 0.9075950996160823
vn 0.3759350820566622 0.1869330073366508 0.9075950996160823
vn 0.3759350820566622 0.1869330073366508 0.9075950996160823
vn 0.9075950996160823 0.18693300733665094 0.37593508205666226
vn 0.9075950996160823 0.18693300733665094 0.37593508205666226
vn 0.9075950996160823 0.18693300733665094 0.37593508205666226
vn 0.9075950996160823 0.18693300733665094 0.37593508205666226
vn 0.3685948532157175 0.2688422146439802 -0.8898661122934189
vn 0.3685948532157175 0.2688422146439802 -0.8898661122934189
vn 0.3685948532157175 0.2688422146439802 -0.8898661122934189
vn 0.3685948532157175 0.2688422146439802 -0.8898661122934189
vn -0.27318524044289944 -0.7002808701821263 0.6595275030361656
vn -0.27318524044289944 -0.7002808701821263 0.6595275030361656
vn -0.27318524044289944 -0.7002808701821263 0.6595275030361656
vn -0.27318524044289944 -0.7002808701821263 0.6595275030361656
vn -0.6595275030361657 -0.7002808701821263 0.27318524044289927
vn -0.6595275030361657 -0.7002808701821263 0.27318524044289927
vn -0.6595275030361657 -0.7002808701821263 0.27318524044289927
vn -0.6595275030361657 -0.7002808701821263 0.27318524044289927
vn -0.9075950996160823 0.18693300733665094 0.37593508205666226
vn -0.9075950996160823 0.18693300733665094 0.37593508205666226
vn -0.9075950996160823 0.18693300733665094 0.37593508205666226
vn -0.9075950996160823 0.18693300733665094 0.37593508205666226
vn -0.3759350820566622 0.1869330073366508 0.9075950996160823
vn -0.3759350820566622 0.1869330073366508 0.9075950996160823
vn -0.3759350820566622 0.1869330073366508 0.9075950996160823
vn -0.3759350820566622 0.1869330073366508 0.9075950996160823
vn -0.3685948532157175 0.2688422146439802 -0.8898661122934189
vn -0.3685948532157175 0.2688422146439802 -0.8898661122934189
vn -0.3685948532157175 0.2688422146439802 -0.8898661122934189
vn -0.3685948532157175 0.2688422146439802 -0.8898661122934189
vn -0.7271169704123991 0.6169211701808094 -0.3011796492478125
vn -0.7271169704123991 0.6169211701808094 -0.3011796492478125
vn -0.7271169704123991 0.6169211701808094 -0.3011796492478125
vn -0.7271169704123991 0.6169211701808094 -0.3011796492478125
vn -0.3011796492478126 0.6169211701808094 -0.7271169704123989
vn -0.3011796492478126 0.6169211701808094 -0.7271169704123989
vn -0.3011796492478126 0.6169211701808094 -0.7271169704123989
vn -0.3011796492478126 0.6169211701808094 -0.7271169704123989
vn -0.23042991405307003 0.7983925847556896 -0.5563014788013994
vn -0.23042991405307003 0.7983925847556896 -0.5563014788013994
vn -0.23042991405307003 0.7983925847556896 -0.5563014788013994
vn -0.23042991405307003 0.7983925847556896 -0.5563014788013994
vn -0.5563014788013997 0.7983925847556896 -0.23042991405306992
vn -0.5563014788013997 0.7983925847556896 -0.23042991405306992
vn -0.5563014788013997 0.7983925847556896 -0.23042991405306992
vn -0.5563014788013997 0.7983925847556896 -0.23042991405306992
vn -0.8898661122934189 0.2688422146439801 -0.3685948532157175
vn -0.8898661122934189 0.2688422146439801 -0.3685948532157175
vn -0.8898661122934189 0.2688422146439801 -0.3685948532157175
vn -0.8898661122934189 0.2688422146439801 -0.3685948532157175
vn 0.3011796492478126 0.6169211701808094 -0.7271169704123989
vn 0.3011796492478126 0.6169211701808094 -0.7271169704123989
vn 0.3011796492478126 0.6169211701808094 -0.7271169704123989
vn 0.3011796492478126 0.6169211701808094 -0.7271169704123989
vn 0.7271169704123991 0.6169211701808094 -0.3011796492478125
vn 0.7271169704123991 0.6169211701808094 -0.3011796492478125
vn 0.7271169704123991 0.6169211701808094 -0.3011796492478125
vn 0.7271169704123991 0.6169211701808094 -0.3011796492478125
vn 0.5563014788013997 0.7983925847556896 -0.23042991405306992
vn 0.5563014788013997 0.7983925847556896 -0.23042991405306992
vn 0.5563014788013997 0.7983925847556896 -0.23042991405306992
vn 0.5563014788013997 0.7983925847556896 -0.23042991405306992
vn 0.23042991405307003 0.7983925847556896 -0.5563014788013994
vn 0.23042991405307003 0.7983925847556896 -0.5563014788013994
vn 0.23042991405307003 0.7983925847556896 -0.5563014788013994
vn 0.23042991405307003 0.7983925847556896 -0.5563014788013994
vn -0.3685948532157175 0.26884221464397984 0.8898661122934189
vn -0.3685948532157175 0.26884221464397984 0.8898661122934189
vn -0.3685948532157175 0.26884221464397984 0.8898661122934189
vn -0.3685948532157175 0.26884221464397984 0.8898661122934189
vn -0.30117964924781254 0.616921170180809 0.7271169704123991
vn -0.30117964924781254 0.616921170180809 0.7271169704123991
vn -0.30117964924781254 0.616921170180809 0.7271169704123991
vn -0.30117964924781254 0.616921170180809 0.7271169704123991
vn 0.7271169704123991 0.6169211701808092 0.3011796492478127
vn 0.7271169704123991 0.6169211701808092 0.3011796492478127
vn 0.7271169704123991 0.6169211701808092 0.3011796492478127
vn 0.7271169704123991 0.6169211701808092 0.3011796492478127
vn 0.5563014788013996 0.7983925847556895 0.23042991405307023
vn 0.5563014788013996 0.7983925847556895 0.23042991405307023
vn 0.5563014788013996 0.7983925847556895 0.23042991405307023
vn 0.5563014788013996 0.7983925847556895 0.23042991405307023
vn -0.23042991405307003 0.7983925847556893 0.5563014788013998
vn -0.23042991405307003 0.7983925847556893 0.5563014788013998
vn -0.23042991405307003 0.7983925847556893 0.5563014788013998
vn -0.23042991405307003 0.7983925847556893 0.5563014788013998
vn -0.8898661122934189 0.26884221464397995 0.36859485321571756
vn -0.8898661122934189 0.26884221464397995 0.36859485321571756
vn -0.8898661122934189 0.26884221464397995 0.36859485321571756
vn -0.8898661122934189 0.26884221464397995 0.36859485321571756
vn -0.7271169704123991 0.6169211701808092 0.3011796492478127
vn -0.7271169704123991 0.6169211701808092 0.3011796492478127
vn -0.7271169704123991 0.6169211701808092 0.3011796492478127
vn -0.7271169704123991 0.6169211701808092 0.3011796492478127
vn 0.30117964924781254 0.616921170180809 0.7271169704123991
vn 0.30117964924781254 0.616921170180809 0.7271169704123991
vn 0.30117964924781254 0.616921170180809 0.7271169704123991
vn 0.30117964924781254 0.616921170180809 0.7271169704123991
vn 0.23042991405307003 0.7983925847556893 0.5563014788013998
vn 0.23042991405307003 0.7983925847556893 0.5563014788013998
vn 0.23042991405307003 0.7983925847556893 0.5563014788013998
vn 0.23042991405307003 0.7983925847556893 0.5563014788013998
vn -0.5563014788013996 0.7983925847556895 0.23042991405307023
vn -0.5563014788013996 0.7983925847556895 0.23042991405307023
vn -0.5563014788013996 0.7983925847556895 0.23042991405307023
vn -0.5563014788013996 0.7983925847556895 0.23042991405307023
vn 0.5603295161142535 0.7950869843513495 -0.23209377563011777
vn 0.5603295161142535 0.7950869843513495 -0.23209377563011777
vn 0.5603295161142535 0.7950869843513495 -0.23209377563011777
vn 0.5603295161142535 0.7950869843513495 -0.23209377563011777
vn 0.5603295161142535 0.7950869843513495 0.23209377563011813
vn 0.5603295161142535 0.7950869843513495 0.23209377563011813
vn 0.5603295161142535 0.7950869843513495 0.23209377563011813
vn 0.5603295161142535 0.7950869843513495 0.23209377563011813
vn -0.23209377563011793 0.7950869843513497 -0.5603295161142534
vn -0.23209377563011793 0.7950869843513497 -0.5603295161142534
vn -0.23209377563011793 0.7950869843513497 -0.5603295161142534
vn -0.23209377563011793 0.7950869843513497 -0.5603295161142534
vn -0.5603295161142535 0.7950869843513495 -0.23209377563011777
vn -0.5603295161142535 0.7950869843513495 -0.23209377563011777
vn -0.5603295161142535 0.7950869843513495 -0.23209377563011777
vn -0.5603295161142535 0.7950869843513495 -0.23209377563011777
vn 0.23209377563011793 0.7950869843513497 -0.5603295161142534
vn 0.23209377563011793 0.7950869843513497 -0.5603295161142534
vn 0.23209377563011793 0.7950869843513497 -0.5603295161142534
vn 0.23209377563011793 0.7950869843513497 -0.5603295161142534
vn 0.3685948532157175 0.26884221464397984 0.8898661122934189
vn 0.3685948532157175 0.26884221464397984 0.8898661122934189
vn 0.3685948532157175 0.26884221464397984 0.8898661122934189
vn 0.3685948532157175 0.26884221464397984 0.8898661122934189
vn -0.6595275030361657 -0.700280870182126 -0.2731852404428996
vn -0.6595275030361657 -0.700280870182126 -0.2731852404428996
vn -0.6595275030361657 -0.700280870182126 -0.2731852404428996
vn -0.6595275030361657 -0.700280870182126 -0.2731852404428996
vn -0.27318524044289944 -0.7002808701821259 -0.6595275030361658
vn -0.27318524044289944 -0.7002808701821259 -0.6595275030361658
vn -0.27318524044289944 -0.7002808701821259 -0.6595275030361658
vn -0.27318524044289944 -0.7002808701821259 -0.6595275030361658
vn -0.3759350820566622 0.18693300733665122 -0.9075950996160823
vn -0.3759350820566622 0.18693300733665122 -0.9075950996160823
vn -0.3759350820566622 0.18693300733665122 -0.9075950996160823
vn -0.3759350820566622 0.18693300733665122 -0.9075950996160823
vn -0.9075950996160823 0.18693300733665108 -0.37593508205666215
vn -0.9075950996160823 0.18693300733665108 -0.37593508205666215
vn -0.9075950996160823 0.18693300733665108 -0.37593508205666215
vn -0.9075950996160823 0.18693300733665108 -0.37593508205666215
vn 0 -1 -2.220446049250313e-16
vn 0 -1 -2.220446049250313e-16
vn 0 -1 -2.220446049250313e-16
vn 0 -1 -2.220446049250313e-16
vn 0 -1 -2.220446049250313e-16
vn 0 -1 -2.220446049250313e-16
vn 0 -1 -2.220446049250313e-16
vn 0 -1 -2.220446049250313e-16
vn 0.3759350820566622 0.18693300733665122 -0.9075950996160823
vn 0.3759350820566622 0.18693300733665122 -0.9075950996160823
vn 0.3759350820566622 0.18693300733665122 -0.9075950996160823
vn 0.3759350820566622 0.18693300733665122 -0.9075950996160823
vn 0.9075950996160823 0.18693300733665108 -0.37593508205666215
vn 0.9075950996160823 0.18693300733665108 -0.37593508205666215
vn 0.9075950996160823 0.18693300733665108 -0.37593508205666215
vn 0.9075950996160823 0.18693300733665108 -0.37593508205666215
vn 0.6595275030361657 -0.700280870182126 -0.2731852404428996
vn 0.6595275030361657 -0.700280870182126 -0.2731852404428996
vn 0.6595275030361657 -0.700280870182126 -0.2731852404428996
vn 0.6595275030361657 -0.700280870182126 -0.2731852404428996
vn 0.27318524044289944 -0.7002808701821259 -0.6595275030361658
vn 0.27318524044289944 -0.7002808701821259 -0.6595275030361658
vn 0.27318524044289944 -0.7002808701821259 -0.6595275030361658
vn 0.27318524044289944 -0.7002808701821259 -0.6595275030361658
vn 0.8898661122934189 0.26884221464397995 0.36859485321571756
vn 0.8898661122934189 0.26884221464397995 0.36859485321571756
vn 0.8898661122934189 0.26884221464397995 0.36859485321571756
vn 0.8898661122934189 0.26884221464397995 0.36859485321571756
vn -0.5603295161142535 0.7950869843513495 0.23209377563011813
vn -0.5603295161142535 0.7950869843513495 0.23209377563011813
vn -0.5603295161142535 0.7950869843513495 0.23209377563011813
vn -0.5603295161142535 0.7950869843513495 0.23209377563011813
vn 0.23209377563011793 0.7950869843513494 0.5603295161142536
vn 0.23209377563011793 0.7950869843513494 0.5603295161142536
vn 0.23209377563011793 0.7950869843513494 0.5603295161142536
vn 0.23209377563011793 0.7950869843513494 0.5603295161142536
vn -0.23209377563011793 0.7950869843513494 0.5603295161142536
vn -0.23209377563011793 0.7950869843513494 0.5603295161142536
vn -0.23209377563011793 0.7950869843513494 0.5603295161142536
vn -0.23209377563011793 0.7950869843513494 0.5603295161142536
vn -0.3750452731408717 0.19875075934006767 0.9054497107826781
vn -0.3750452731408717 0.19875075934006767 0.9054497107826781
vn -0.3750452731408717 0.19875075934006767 0.9054497107826781
vn -0.3750452731408717 0.19875075934006767 0.9054497107826781
vn 0.3750452731408717 0.19875075934006767 0.9054497107826781
vn 0.3750452731408717 0.19875075934006767 0.9054497107826781
vn 0.3750452731408717 0.19875075934006767 0.9054497107826781
vn 0.3750452731408717 0.19875075934006767 0.9054497107826781
vn 0.9054497107826781 0.19875075934006795 -0.37504527314087166
vn 0.9054497107826781 0.19875075934006795 -0.37504527314087166
vn 0.9054497107826781 0.19875075934006795 -0.37504527314087166
vn 0.9054497107826781 0.19875075934006795 -0.37504527314087166
vn -0.905449710782678 0.19875075934006778 0.3750452731408717
vn -0.905449710782678 0.19875075934006778 0.3750452731408717
vn -0.905449710782678 0.19875075934006778 0.3750452731408717
vn -0.905449710782678 0.19875075934006778 0.3750452731408717
vn -0.37504527314087166 0.19875075934006806 -0.905449710782678
vn -0.37504527314087166 0.19875075934006806 -0.905449710782678
vn -0.37504527314087166 0.19875075934006806 -0.905449710782678
vn -0.37504527314087166 0.19875075934006806 -0.905449710782678
vn 0.905449710782678 0.19875075934006778 0.3750452731408717
vn 0.905449710782678 0.19875075934006778 0.3750452731408717
vn 0.905449710782678 0.19875075934006778 0.3750452731408717
vn 0.905449710782678 0.19875075934006778 0.3750452731408717
vn 0.37504527314087166 0.19875075934006806 -0.905449710782678
vn 0.37504527314087166 0.19875075934006806 -0.905449710782678
vn 0.37504527314087166 0.19875075934006806 -0.905449710782678
vn 0.37504527314087166 0.19875075934006806 -0.905449710782678
vn -0.9054497107826781 0.19875075934006795 -0.37504527314087166
vn -0.9054497107826781 0.19875075934006795 -0.37504527314087166
vn -0.9054497107826781 0.19875075934006795 -0.37504527314087166
vn -0.9054497107826781 0.19875075934006795 -0.37504527314087166
vn 0.9238808166067614 -8.497210319139828e-17 0.38268033226966863
vn 0.9238808166067614 -8.497210319139828e-17 0.38268033226966863
vn 0.9238808166067614 -8.497210319139828e-17 0.38268033226966863
vn 0.9238808166067614 -8.497210319139828e-17 0.38268033226966863
vn 0.9238808166067614 8.497210319139828e-17 -0.38268033226966863
vn 0.9238808166067614 8.497210319139828e-17 -0.38268033226966863
vn 0.9238808166067614 8.497210319139828e-17 -0.38268033226966863
vn 0.9238808166067614 8.497210319139828e-17 -0.38268033226966863
vn -0.9238808166067614 8.497210319139828e-17 -0.38268033226966863
vn -0.9238808166067614 8.497210319139828e-17 -0.38268033226966863
vn -0.9238808166067614 8.497210319139828e-17 -0.38268033226966863
vn -0.9238808166067614 8.497210319139828e-17 -0.38268033226966863
vn -0.38268033226966863 -2.0514275092126363e-16 0.9238808166067614
vn -0.38268033226966863 -2.0514275092126363e-16 0.9238808166067614
vn -0.38268033226966863 -2.0514275092126363e-16 0.9238808166067614
vn -0.38268033226966863 -2.0514275092126363e-16 0.9238808166067614
vn 0.38268033226966863 -2.0514275092126363e-16 0.9238808166067614
vn 0.38268033226966863 -2.0514275092126363e-16 0.9238808166067614
vn 0.38268033226966863 -2.0514275092126363e-16 0.9238808166067614
vn 0.38268033226966863 -2.0514275092126363e-16 0.9238808166067614
vn 0.38268033226966863 2.0514275092126363e-16 -0.9238808166067614
vn 0.38268033226966863 2.0514275092126363e-16 -0.9238808166067614
vn 0.38268033226966863 2.0514275092126363e-16 -0.9238808166067614
vn 0.38268033226966863 2.0514275092126363e-16 -0.9238808166067614
vn -0.38268033226966863 2.0514275092126363e-16 -0.9238808166067614
vn -0.38268033226966863 2.0514275092126363e-16 -0.9238808166067614
vn -0.38268033226966863 2.0514275092126363e-16 -0.9238808166067614
vn -0.38268033226966863 2.0514275092126363e-16 -0.9238808166067614
vn -0.9238808166067614 -8.497210319139828e-17 0.38268033226966863
vn -0.9238808166067614 -8.497210319139828e-17 0.38268033226966863
vn -0.9238808166067614 -8.497210319139828e-17 0.38268033226966863
vn -0.9238808166067614 -8.497210319139828e-17 0.38268033226966863
vn -0.19490284798962476 -0.9774943480292334 0.08073214611563893
vn -0.19490284798962476 -0.9774943480292334 0.08073214611563893
vn -0.19490284798962476 -0.9774943480292334 0.08073214611563893
vn -0.19490284798962476 -0.9774943480292334 0.08073214611563893
vn 0.19490284798962476 -0.9774943480292334 0.08073214611563893
vn 0.19490284798962476 -0.9774943480292334 0.08073214611563893
vn 0.19490284798962476 -0.9774943480292334 0.08073214611563893
vn 0.19490284798962476 -0.9774943480292334 0.08073214611563893
vn 0.19490284798962476 -0.9774943480292334 -0.08073214611563936
vn 0.19490284798962476 -0.9774943480292334 -0.08073214611563936
vn 0.19490284798962476 -0.9774943480292334 -0.08073214611563936
vn 0.19490284798962476 -0.9774943480292334 -0.08073214611563936
vn -0.19490284798962476 -0.9774943480292334 -0.08073214611563936
vn -0.19490284798962476 -0.9774943480292334 -0.08073214611563936
vn -0.19490284798962476 -0.9774943480292334 -0.08073214611563936
vn -0.19490284798962476 -0.9774943480292334 -0.08073214611563936
vn -0.08073214611563914 -0.9774943480292334 0.19490284798962454
vn -0.08073214611563914 -0.9774943480292334 0.19490284798962454
vn -0.08073214611563914 -0.9774943480292334 0.19490284798962454
vn -0.08073214611563914 -0.9774943480292334 0.19490284798962454
vn 0.08073214611563914 -0.9774943480292334 0.19490284798962454
vn 0.08073214611563914 -0.9774943480292334 0.19490284798962454
vn 0.08073214611563914 -0.9774943480292334 0.19490284798962454
vn 0.08073214611563914 -0.9774943480292334 0.19490284798962454
vn 0.08073214611563914 -0.9774943480292334 -0.19490284798962498
vn 0.08073214611563914 -0.9774943480292334 -0.19490284798962498
vn 0.08073214611563914 -0.9774943480292334 -0.19490284798962498
vn 0.08073214611563914 -0.9774943480292334 -0.19490284798962498
vn -0.08073214611563914 -0.9774943480292334 -0.19490284798962498
vn -0.08073214611563914 -0.9774943480292334 -0.19490284798962498
vn -0.08073214611563914 -0.9774943480292334 -0.19490284798962498
vn -0.08073214611563914 -0.9774943480292334 -0.19490284798962498
vn 0.17753144192789125 0.8858783753572181 0.42860481938664624
vn 0.17753144192789125 0.8858783753572181 0.42860481938664624
vn 0.17753144192789125 0.8858783753572181 0.42860481938664624
vn 0.17753144192789125 0.8858783753572181 0.42860481938664624
vn 0.17753144192789122 0.8858783753572183 -0.4286048193866458
vn 0.17753144192789122 0.8858783753572183 -0.4286048193866458
vn 0.17753144192789122 0.8858783753572183 -0.4286048193866458
vn 0.17753144192789122 0.8858783753572183 -0.4286048193866458
vn -0.1810835203302294 0.8809548857990668 -0.43718102412108956
vn -0.1810835203302294 0.8809548857990668 -0.43718102412108956
vn -0.1810835203302294 0.8809548857990668 -0.43718102412108956
vn -0.1810835203302294 0.8809548857990668 -0.43718102412108956
vn -0.443413005968353 0.8772975395253809 0.18366799743238407
vn -0.443413005968353 0.8772975395253809 0.18366799743238407
vn -0.443413005968353 0.8772975395253809 0.18366799743238407
vn -0.443413005968353 0.8772975395253809 0.18366799743238407
vn 0.4227220971291152 0.8891830799927115 0.17509848329850888
vn 0.4227220971291152 0.8891830799927115 0.17509848329850888
vn 0.4227220971291152 0.8891830799927115 0.17509848329850888
vn 0.4227220971291152 0.8891830799927115 0.17509848329850888
vn 0.4227220971291152 0.8891830799927115 -0.17509848329850852
vn 0.4227220971291152 0.8891830799927115 -0.17509848329850852
vn 0.4227220971291152 0.8891830799927115 -0.17509848329850852
vn 0.4227220971291152 0.8891830799927115 -0.17509848329850852
vn -0.443413005968353 0.8772975395253809 -0.1836679974323837
vn -0.443413005968353 0.8772975395253809 -0.1836679974323837
vn -0.443413005968353 0.8772975395253809 -0.1836679974323837
vn -0.443413005968353 0.8772975395253809 -0.1836679974323837
vn -0.1810835203302294 0.8809548857990664 0.43718102412108995
vn -0.1810835203302294 0.8809548857990664 0.43718102412108995
vn -0.1810835203302294 0.8809548857990664 0.43718102412108995
vn -0.1810835203302294 0.8809548857990664 0.43718102412108995
vn -0.9166533453230459 0.12482001200781834 -0.3796927825366674
vn -0.9166533453230459 0.12482001200781834 -0.3796927825366674
vn -0.9166533453230459 0.12482001200781834 -0.3796927825366674
vn -0.9166533453230459 0.12482001200781834 -0.3796927825366674
vn -0.37969278253666744 0.12482001200781806 0.9166533453230459
vn -0.37969278253666744 0.12482001200781806 0.9166533453230459
vn -0.37969278253666744 0.12482001200781806 0.9166533453230459
vn -0.37969278253666744 0.12482001200781806 0.9166533453230459
vn 0.37969278253666744 0.12482001200781806 0.9166533453230459
vn 0.37969278253666744 0.12482001200781806 0.9166533453230459
vn 0.37969278253666744 0.12482001200781806 0.9166533453230459
vn 0.37969278253666744 0.12482001200781806 0.9166533453230459
vn 0.37969278253666744 0.12482001200781846 -0.9166533453230459
vn 0.37969278253666744 0.12482001200781846 -0.9166533453230459
vn 0.37969278253666744 0.12482001200781846 -0.9166533453230459
vn 0.37969278253666744 0.12482001200781846 -0.9166533453230459
vn -0.37969278253666744 0.12482001200781846 -0.9166533453230459
vn -0.37969278253666744 0.12482001200781846 -0.9166533453230459
vn -0.37969278253666744 0.12482001200781846 -0.9166533453230459
vn -0.37969278253666744 0.12482001200781846 -0.9166533453230459
vn -0.9166533453230459 0.12482001200781818 0.3796927825366675
vn -0.9166533453230459 0.12482001200781818 0.3796927825366675
vn -0.9166533453230459 0.12482001200781818 0.3796927825366675
vn -0.9166533453230459 0.12482001200781818 0.3796927825366675
vn 0.9166533453230459 0.12482001200781818 0.3796927825366675
vn 0.9166533453230459 0.12482001200781818 0.3796927825366675
vn 0.9166533453230459 0.12482001200781818 0.3796927825366675
vn 0.9166533453230459 0.12482001200781818 0.3796927825366675
vn 0.9166533453230459 0.12482001200781834 -0.3796927825366674
vn 0.9166533453230459 0.12482001200781834 -0.3796927825366674
vn 0.9166533453230459 0.12482001200781834 -0.3796927825366674
vn 0.9166533453230459 0.12482001200781834 -0.3796927825366674
vn 0.39359862162965886 0.9047097553478204 0.1630349153700518
vn 0.39359862162965886 0.9047097553478204 0.1630349153700518
vn 0.39359862162965886 0.9047097553478204 0.1630349153700518
vn 0.39359862162965886 0.9047097553478204 0.1630349153700518
vn 0.39359862162965886 0.9047097553478204 -0.16303491537005138
vn 0.39359862162965886 0.9047097553478204 -0.16303491537005138
vn 0.39359862162965886 0.9047097553478204 -0.16303491537005138
vn 0.39359862162965886 0.9047097553478204 -0.16303491537005138
vn -0.39359862162965886 0.9047097553478204 -0.16303491537005138
vn -0.39359862162965886 0.9047097553478204 -0.16303491537005138
vn -0.39359862162965886 0.9047097553478204 -0.16303491537005138
vn -0.39359862162965886 0.9047097553478204 -0.16303491537005138
vn -0.16303491537005158 0.9047097553478203 0.3935986216296591
vn -0.16303491537005158 0.9047097553478203 0.3935986216296591
vn -0.16303491537005158 0.9047097553478203 0.3935986216296591
vn -0.16303491537005158 0.9047097553478203 0.3935986216296591
vn 0.16303491537005158 0.9047097553478203 0.3935986216296591
vn 0.16303491537005158 0.9047097553478203 0.3935986216296591
vn 0.16303491537005158 0.9047097553478203 0.3935986216296591
vn 0.16303491537005158 0.9047097553478203 0.3935986216296591
vn 0.16303491537005158 0.9047097553478205 -0.3935986216296587
vn 0.16303491537005158 0.9047097553478205 -0.3935986216296587
vn 0.16303491537005158 0.9047097553478205 -0.3935986216296587
vn 0.16303491537005158 0.9047097553478205 -0.3935986216296587
vn -0.16303491537005158 0.9047097553478205 -0.3935986216296587
vn -0.16303491537005158 0.9047097553478205 -0.3935986216296587
vn -0.16303491537005158 0.9047097553478205 -0.3935986216296587
vn -0.16303491537005158 0.9047097553478205 -0.3935986216296587
vn -0.39359862162965886 0.9047097553478204 0.1630349153700518
vn -0.39359862162965886 0.9047097553478204 0.1630349153700518
vn -0.39359862162965886 0.9047097553478204 0.1630349153700518
vn -0.39359862162965886 0.9047097553478204 0.1630349153700518
vn -0.3517313851373138 -0.3939845829295612 -0.8491532141629132
vn -0.3517313851373138 -0.3939845829295612 -0.8491532141629132
vn -0.3517313851373138 -0.3939845829295612 -0.8491532141629132
vn -0.3517313851373138 -0.3939845829295612 -0.8491532141629132
vn -0.8491532141629132 -0.39398458292956146 0.35173138513731367
vn -0.8491532141629132 -0.39398458292956146 0.35173138513731367
vn -0.8491532141629132 -0.39398458292956146 0.35173138513731367
vn -0.8491532141629132 -0.39398458292956146 0.35173138513731367
vn 0.8491532141629132 -0.39398458292956146 0.35173138513731367
vn 0.8491532141629132 -0.39398458292956146 0.35173138513731367
vn 0.8491532141629132 -0.39398458292956146 0.35173138513731367
vn 0.8491532141629132 -0.39398458292956146 0.35173138513731367
vn 0.8491532141629131 -0.39398458292956123 -0.35173138513731383
vn 0.8491532141629131 -0.39398458292956123 -0.35173138513731383
vn 0.8491532141629131 -0.39398458292956123 -0.35173138513731383
vn 0.8491532141629131 -0.39398458292956123 -0.35173138513731383
vn -0.8491532141629131 -0.39398458292956123 -0.35173138513731383
vn -0.8491532141629131 -0.39398458292956123 -0.35173138513731383
vn -0.8491532141629131 -0.39398458292956123 -0.35173138513731383
vn -0.8491532141629131 -0.39398458292956123 -0.35173138513731383
vn -0.3517313851373137 -0.3939845829295615 0.8491532141629131
vn -0.3517313851373137 -0.3939845829295615 0.8491532141629131
vn -0.3517313851373137 -0.3939845829295615 0.8491532141629131
vn -0.3517313851373137 -0.3939845829295615 0.8491532141629131
vn 0.3517313851373137 -0.3939845829295615 0.8491532141629131
vn 0.3517313851373137 -0.3939845829295615 0.8491532141629131
vn 0.3517313851373137 -0.3939845829295615 0.8491532141629131
vn 0.3517313851373137 -0.3939845829295615 0.8491532141629131
vn 0.3517313851373138 -0.3939845829295612 -0.8491532141629132
vn 0.3517313851373138 -0.3939845829295612 -0.8491532141629132
vn 0.3517313851373138 -0.3939845829295612 -0.8491532141629132
vn 0.3517313851373138 -0.3939845829295612 -0.8491532141629132
vn 0.3821488869145089 -0.052935110038479005 -0.9225833850418161
vn 0.3821488869145089 -0.052935110038479005 -0.9225833850418161
vn 0.3821488869145089 -0.052935110038479005 -0.9225833850418161
vn 0.3821488869145089 -0.052935110038479005 -0.9225833850418161
vn 0.3821488869145089 -0.052935110038479415 0.9225833850418161
vn 0.3821488869145089 -0.052935110038479415 0.9225833850418161
vn 0.3821488869145089 -0.052935110038479415 0.9225833850418161
vn 0.3821488869145089 -0.052935110038479415 0.9225833850418161
vn -0.3821488869145089 -0.052935110038479415 0.9225833850418161
vn -0.3821488869145089 -0.052935110038479415 0.9225833850418161
vn -0.3821488869145089 -0.052935110038479415 0.9225833850418161
vn -0.3821488869145089 -0.052935110038479415 0.9225833850418161
vn -0.9225833850418161 -0.05293511003847912 -0.3821488869145089
vn -0.9225833850418161 -0.05293511003847912 -0.3821488869145089
vn -0.9225833850418161 -0.05293511003847912 -0.3821488869145089
vn -0.9225833850418161 -0.05293511003847912 -0.3821488869145089
vn 0.9225833850418161 -0.05293511003847912 -0.3821488869145089
vn 0.9225833850418161 -0.05293511003847912 -0.3821488869145089
vn 0.9225833850418161 -0.05293511003847912 -0.3821488869145089
vn 0.9225833850418161 -0.05293511003847912 -0.3821488869145089
vn 0.9225833850418161 -0.0529351100384793 0.3821488869145089
vn 0.9225833850418161 -0.0529351100384793 0.3821488869145089
vn 0.9225833850418161 -0.0529351100384793 0.3821488869145089
vn 0.9225833850418161 -0.0529351100384793 0.3821488869145089
vn -0.9225833850418161 -0.0529351100384793 0.3821488869145089
vn -0.9225833850418161 -0.0529351100384793 0.3821488869145089
vn -0.9225833850418161 -0.0529351100384793 0.3821488869145089
vn -0.9225833850418161 -0.0529351100384793 0.3821488869145089
vn -0.3821488869145089 -0.052935110038479005 -0.9225833850418161
vn -0.3821488869145089 -0.052935110038479005 -0.9225833850418161
vn -0.3821488869145089 -0.052935110038479005 -0.9225833850418161
vn -0.3821488869145089 -0.052935110038479005 -0.9225833850418161
vn 0.3215278485550781 0.5423009146265318 0.7762277762350235
vn 0.3215278485550781 0.5423009146265318 0.7762277762350235
vn 0.3215278485550781 0.5423009146265318 0.7762277762350235
vn 0.3215278485550781 0.5423009146265318 0.7762277762350235
vn 0.3215278485550781 0.5423009146265322 -0.7762277762350234
vn 0.3215278485550781 0.5423009146265322 -0.7762277762350234
vn 0.3215278485550781 0.5423009146265322 -0.7762277762350234
vn 0.3215278485550781 0.5423009146265322 -0.7762277762350234
vn -0.3215278485550781 0.5423009146265322 -0.7762277762350234
vn -0.3215278485550781 0.5423009146265322 -0.7762277762350234
vn -0.3215278485550781 0.5423009146265322 -0.7762277762350234
vn -0.3215278485550781 0.5423009146265322 -0.7762277762350234
vn -0.7762277762350235 0.542300914626532 0.3215278485550782
vn -0.7762277762350235 0.542300914626532 0.3215278485550782
vn -0.7762277762350235 0.542300914626532 0.3215278485550782
vn -0.7762277762350235 0.542300914626532 0.3215278485550782
vn 0.7762277762350235 0.542300914626532 0.3215278485550782
vn 0.7762277762350235 0.542300914626532 0.3215278485550782
vn 0.7762277762350235 0.542300914626532 0.3215278485550782
vn 0.7762277762350235 0.542300914626532 0.3215278485550782
vn 0.7762277762350235 0.5423009146265321 -0.32152784855507793
vn 0.7762277762350235 0.5423009146265321 -0.32152784855507793
vn 0.7762277762350235 0.5423009146265321 -0.32152784855507793
vn 0.7762277762350235 0.5423009146265321 -0.32152784855507793
vn -0.7762277762350235 0.5423009146265321 -0.32152784855507793
vn -0.7762277762350235 0.5423009146265321 -0.32152784855507793
vn -0.7762277762350235 0.5423009146265321 -0.32152784855507793
vn -0.7762277762350235 0.5423009146265321 -0.32152784855507793
vn -0.3215278485550781 0.5423009146265318 0.7762277762350235
vn -0.3215278485550781 0.5423009146265318 0.7762277762350235
vn -0.3215278485550781 0.5423009146265318 0.7762277762350235
vn -0.3215278485550781 0.5423009146265318 0.7762277762350235
vn 0.17698158779316842 0.981480188954027 0.07330863709670404
vn 0.17698158779316842 0.981480188954027 0.07330863709670404
vn 0.17698158779316842 0.981480188954027 0.07330863709670404
vn 0.17698158779316842 0.981480188954027 0.07330863709670404
vn 0.17698158779316842 0.981480188954027 -0.07330863709670361
vn 0.17698158779316842 0.981480188954027 -0.07330863709670361
vn 0.17698158779316842 0.981480188954027 -0.07330863709670361
vn 0.17698158779316842 0.981480188954027 -0.07330863709670361
vn -0.1770089879944903 0.9814744259258787 -0.07331963872410424
vn -0.1770089879944903 0.9814744259258787 -0.07331963872410424
vn -0.1770089879944903 0.9814744259258787 -0.07331963872410424
vn -0.1770089879944903 0.9814744259258787 -0.07331963872410424
vn -0.07331970347399411 0.9814752785514897 0.17700423349389352
vn -0.07331970347399411 0.9814752785514897 0.17700423349389352
vn -0.07331970347399411 0.9814752785514897 0.17700423349389352
vn -0.07331970347399411 0.9814752785514897 0.17700423349389352
vn 0.07331417034387137 0.9814777351271436 0.17699290346361973
vn 0.07331417034387137 0.9814777351271436 0.17699290346361973
vn 0.07331417034387137 0.9814777351271436 0.17699290346361973
vn 0.07331417034387137 0.9814777351271436 0.17699290346361973
vn 0.07331417034387139 0.9814777351271439 -0.17699290346361934
vn 0.07331417034387139 0.9814777351271439 -0.17699290346361934
vn 0.07331417034387139 0.9814777351271439 -0.17699290346361934
vn 0.07331417034387139 0.9814777351271439 -0.17699290346361934
vn -0.0733148052289614 0.9814756333673921 -0.17700429497703155
vn -0.0733148052289614 0.9814756333673921 -0.17700429497703155
vn -0.0733148052289614 0.9814756333673921 -0.17700429497703155
vn -0.0733148052289614 0.9814756333673921 -0.17700429497703155
vn -0.1770089879944903 0.9814744259258787 0.07331963872410469
vn -0.1770089879944903 0.9814744259258787 0.07331963872410469
vn -0.1770089879944903 0.9814744259258787 0.07331963872410469
vn -0.1770089879944903 0.9814744259258787 0.07331963872410469
vn -0.9169849334660168 0.12193006023513732 0.379831136437471
vn -0.9169849334660168 0.12193006023513732 0.379831136437471
vn -0.9169849334660168 0.12193006023513732 0.379831136437471
vn -0.9169849334660168 0.12193006023513732 0.379831136437471
vn -0.38000574521587455 0.11820740452993936 0.9173999362967185
vn -0.38000574521587455 0.11820740452993936 0.9173999362967185
vn -0.38000574521587455 0.11820740452993936 0.9173999362967185
vn -0.38000574521587455 0.11820740452993936 0.9173999362967185
vn 0.38023677163348796 0.1129458996419336 0.917966895509755
vn 0.38023677163348796 0.1129458996419336 0.917966895509755
vn 0.38023677163348796 0.1129458996419336 0.917966895509755
vn 0.38023677163348796 0.1129458996419336 0.917966895509755
vn 0.9183511476977034 0.10923593003750919 0.3803927984480669
vn 0.9183511476977034 0.10923593003750919 0.3803927984480669
vn 0.9183511476977034 0.10923593003750919 0.3803927984480669
vn 0.9183511476977034 0.10923593003750919 0.3803927984480669
vn 0.9183511476977034 0.10923593003750937 -0.3803927984480669
vn 0.9183511476977034 0.10923593003750937 -0.3803927984480669
vn 0.9183511476977034 0.10923593003750937 -0.3803927984480669
vn 0.9183511476977034 0.10923593003750937 -0.3803927984480669
vn 0.3802358331733304 0.11296715428488498 -0.9179646688319536
vn 0.3802358331733304 0.11296715428488498 -0.9179646688319536
vn 0.3802358331733304 0.11296715428488498 -0.9179646688319536
vn 0.3802358331733304 0.11296715428488498 -0.9179646688319536
vn -0.3800047899654104 0.11822862448577533 -0.917397597530943
vn -0.3800047899654104 0.11822862448577533 -0.917397597530943
vn -0.3800047899654104 0.11822862448577533 -0.917397597530943
vn -0.3800047899654104 0.11822862448577533 -0.917397597530943
vn -0.9169849334660168 0.12193006023513747 -0.3798311364374709
vn -0.9169849334660168 0.12193006023513747 -0.3798311364374709
vn -0.9169849334660168 0.12193006023513747 -0.3798311364374709
vn -0.9169849334660168 0.12193006023513747 -0.3798311364374709
vn -0.3799168716267651 -0.1200793295148735 0.9171936138442038
vn -0.3799168716267651 -0.1200793295148735 0.9171936138442038
vn -0.3799168716267651 -0.1200793295148735 0.9171936138442038
vn 0.3799168716267651 -0.1200793295148735 0.9171936138442038
vn 0.3799168716267651 -0.1200793295148735 0.9171936138442038
vn 0.3799168716267651 -0.1200793295148735 0.9171936138442038
vn 0.9171936138442041 -0.12007932951487342 0.37991687162676513
vn 0.9171936138442041 -0.12007932951487342 0.37991687162676513
vn 0.9171936138442041 -0.12007932951487342 0.37991687162676513
vn 0.9171936138442038 -0.12007932951487324 -0.37991687162676513
vn 0.9171936138442038 -0.12007932951487324 -0.37991687162676513
vn 0.9171936138442038 -0.12007932951487324 -0.37991687162676513
vn 0.37991687162676513 -0.12007932951487314 -0.9171936138442041
vn 0.37991687162676513 -0.12007932951487314 -0.9171936138442041
vn 0.37991687162676513 -0.12007932951487314 -0.9171936138442041
vn -0.37991687162676513 -0.12007932951487314 -0.9171936138442041
vn -0.37991687162676513 -0.12007932951487314 -0.9171936138442041
vn -0.37991687162676513 -0.12007932951487314 -0.9171936138442041
vn -0.9171936138442038 -0.12007932951487324 -0.37991687162676513
vn -0.9171936138442038 -0.12007932951487324 -0.37991687162676513
vn -0.9171936138442038 -0.12007932951487324 -0.37991687162676513
vn -0.9171936138442041 -0.12007932951487342 0.37991687162676513
vn -0.9171936138442041 -0.12007932951487342 0.37991687162676513
vn -0.9171936138442041 -0.12007932951487342 0.37991687162676513
vn -0.6684123669853803 0.5258045459944589 0.5260746021930369
vn -0.6684123669853803 0.5258045459944589 0.5260746021930369
vn -0.6684123669853803 0.5258045459944589 0.5260746021930369
vn 0.5260746021930368 0.5258045459944591 -0.6684123669853803
vn 0.5260746021930368 0.5258045459944591 -0.6684123669853803
vn 0.5260746021930368 0.5258045459944591 -0.6684123669853803
vn -0.10065353844169393 0.5258034723538767 0.8446298441683032
vn -0.10065353844169393 0.5258034723538767 0.8446298441683032
vn -0.10065353844169393 0.5258034723538767 0.8446298441683032
vn -0.10065353844169396 0.5258034723538771 -0.8446298441683031
vn -0.10065353844169396 0.5258034723538771 -0.8446298441683031
vn -0.10065353844169396 0.5258034723538771 -0.8446298441683031
vn 0.5260746021930368 0.5258045459944588 0.6684123669853804
vn 0.5260746021930368 0.5258045459944588 0.6684123669853804
vn 0.5260746021930368 0.5258045459944588 0.6684123669853804
vn -0.6684123669853803 0.525804545994459 -0.5260746021930368
vn -0.6684123669853803 0.525804545994459 -0.5260746021930368
vn -0.6684123669853803 0.525804545994459 -0.5260746021930368
vn 0.8446298441683031 0.5258034723538768 0.10065353844169404
vn 0.8446298441683031 0.5258034723538768 0.10065353844169404
vn 0.8446298441683031 0.5258034723538768 0.10065353844169404
vn -0.8446298441683031 0.5258034723538768 0.10065353844169404
vn -0.8446298441683031 0.5258034723538768 0.10065353844169404
vn -0.8446298441683031 0.5258034723538768 0.10065353844169404
vn 0.6684123669853803 0.525804545994459 -0.5260746021930368
vn 0.6684123669853803 0.525804545994459 -0.5260746021930368
vn 0.6684123669853803 0.525804545994459 -0.5260746021930368
vn -0.5260746021930368 0.5258045459944588 0.6684123669853804
vn -0.5260746021930368 0.5258045459944588 0.6684123669853804
vn -0.5260746021930368 0.5258045459944588 0.6684123669853804
vn 0.10065353844169396 0.5258034723538771 -0.8446298441683031
vn 0.10065353844169396 0.5258034723538771 -0.8446298441683031
vn 0.10065353844169396 0.5258034723538771 -0.8446298441683031
vn 0.10065353844169393 0.5258034723538767 0.8446298441683032
vn 0.10065353844169393 0.5258034723538767 0.8446298441683032
vn 0.10065353844169393 0.5258034723538767 0.8446298441683032
vn -0.5260746021930368 0.5258045459944591 -0.6684123669853803
vn -0.5260746021930368 0.5258045459944591 -0.6684123669853803
vn -0.5260746021930368 0.5258045459944591 -0.6684123669853803
vn 0.6684123669853803 0.5258045459944589 0.5260746021930369
vn 0.6684123669853803 0.5258045459944589 0.5260746021930369
vn 0.6684123669853803 0.5258045459944589 0.5260746021930369
vn -0.8446298441683033 0.525803472353877 -0.10065353844169385
vn -0.8446298441683033 0.525803472353877 -0.10065353844169385
vn -0.8446298441683033 0.525803472353877 -0.10065353844169385
vn 0.8446298441683033 0.525803472353877 -0.10065353844169385
vn 0.8446298441683033 0.525803472353877 -0.10065353844169385
vn 0.8446298441683033 0.525803472353877 -0.10065353844169385
f 225//225 226//226 227//227
f 227//227 228//228 229//229
f 229//229 230//230 231//231
f 231//231 232//232 225//225
f 225//225 227//227 229//229
f 229//229 231//231 225//225
f 617//617 618//618 619//619
f 620//620 621//621 622//622
f 623//623 624//624 625//625
f 626//626 627//627 628//628
f 629//629 630//630 631//631
f 632//632 633//633 634//634
f 635//635 636//636 637//637
f 638//638 639//639 640//640
f 641//641 642//642 643//643
f 644//644 645//645 646//646
f 647//647 648//648 649//649
f 650//650 651//651 652//652
f 653//653 654//654 655//655
f 656//656 657//657 658//658
f 659//659 660//660 661//661
f 662//662 663//663 664//664
f 665//665 666//666 667//667
f 668//668 669//669 670//670
f 671//671 672//672 673//673
f 674//674 675//675 676//676
f 677//677 678//678 679//679
f 680//680 681//681 682//682
f 683//683 684//684 685//685
f 686//686 687//687 688//688
f 1//1 2//2 3//3
f 1//1 3//3 4//4
f 5//5 6//6 7//7
f 5//5 7//7 8//8
f 9//9 10//10 11//11
f 9//9 11//11 12//12
f 13//13 14//14 15//15
f 13//13 15//15 16//16
f 17//17 18//18 19//19
f 17//17 19//19 20//20
f 21//21 22//22 23//23
f 21//21 23//23 24//24
f 25//25 26//26 27//27
f 25//25 27//27 28//28
f 29//29 30//30 31//31
f 29//29 31//31 32//32
f 33//33 34//34 35//35
f 33//33 35//35 36//36
f 37//37 38//38 39//39
f 37//37 39//39 40//40
f 41//41 42//42 43//43
f 41//41 43//43 44//44
f 45//45 46//46 47//47
f 45//45 47//47 48//48
f 49//49 50//50 51//51
f 49//49 51//51 52//52
f 53//53 54//54 55//55
f 53//53 55//55 56//56
f 57//57 58//58 59//59
f 57//57 59//59 60//60
f 61//61 62//62 63//63
f 61//61 63//63 64//64
f 65//65 66//66 67//67
f 65//65 67//67 68//68
f 69//69 70//70 71//71
f 69//69 71//71 72//72
f 73//73 74//74 75//75
f 73//73 75//75 76//76
f 77//77 78//78 79//79
f 77//77 79//79 80//80
f 81//81 82//82 83//83
f 81//81 83//83 84//84
f 85//85 86//86 87//87
f 85//85 87//87 88//88
f 89//89 90//90 91//91
f 89//89 91//91 92//92
f 93//93 94//94 95//95
f 93//93 95//95 96//96
f 97//97 98//98 99//99
f 97//97 99//99 100//100
f 101//101 102//102 103//103
f 101//101 103//103 104//104
f 105//105 106//106 107//107
f 105//105 107//107 108//108
f 109//109 110//110 111//111
f 109//109 111//111 112//112
f 113//113 114//114 115//115
f 113//113 115//115 116//116
f 117//117 118//118 119//119
f 117//117 119//119 120//120
f 121//121 122//122 123//123
f 121//121 123//123 124//124
f 125//125 126//126 127//127
f 125//125 127//127 128//128
f 129//129 130//130 131//131
f 129//129 131//131 132//132
f 133//133 134//134 135//135
f 133//133 135//135 136//136
f 137//137 138//138 139//139
f 137//137 139//139 140//140
f 141//141 142//142 143//143
f 141//141 143//143 144//144
f 145//145 146//146 147//147
f 145//145 147//147 148//148
f 149//149 150//150 151//151
f 149//149 151//151 152//152
f 153//153 154//154 155//155
f 153//153 155//155 156//156
f 157//157 158//158 159//159
f 157//157 159//159 160//160
f 161//161 162//162 163//163
f 161//161 163//163 164//164
f 165//165 166//166 167//167
f 165//165 167//167 168//168
f 169//169 170//170 171//171
f 169//169 171//171 172//172
f 173//173 174//174 175//175
f 173//173 175//175 176//176
f 177//177 178//178 179//179
f 177//177 179//179 180//180
f 181//181 182//182 183//183
f 181//181 183//183 184//184
f 185//185 186//186 187//187
f 185//185 187//187 188//188
f 189//189 190//190 191//191
f 189//189 191//191 192//192
f 193//193 194//194 195//195
f 193//193 195//195 196//196
f 197//197 198//198 199//199
f 197//197 199//199 200//200
f 201//201 202//202 203//203
f 201//201 203//203 204//204
f 205//205 206//206 207//207
f 205//205 207//207 208//208
f 209//209 210//210 211//211
f 209//209 211//211 212//212
f 213//213 214//214 215//215
f 213//213 215//215 216//216
f 217//217 218//218 219//219
f 217//217 219//219 220//220
f 221//221 222//222 223//223
f 221//221 223//223 224//224
f 233//233 234//234 235//235
f 233//233 235//235 236//236
f 237//237 238//238 239//239
f 237//237 239//239 240//240
f 241//241 242//242 243//243
f 241//241 243//243 244//244
f 245//245 246//246 247//247
f 245//245 247//247 248//248
f 249//249 250//250 251//251
f 249//249 251//251 252//252
f 253//253 254//254 255//255
f 253//253 255//255 256//256
f 257//257 258//258 259//259
f 257//257 259//259 260//260
f 261//261 262//262 263//263
f 261//261 263//263 264//264
f 265//265 266//266 267//267
f 265//265 267//267 268//268
f 269//269 270//270 271//271
f 269//269 271//271 272//272
f 273//273 274//274 275//275
f 273//273 275//275 276//276
f 277//277 278//278 279//279
f 277//277 279//279 280//280
f 281//281 282//282 283//283
f 281//281 283//283 284//284
f 285//285 286//286 287//287
f 285//285 287//287 288//288
f 289//289 290//290 291//291
f 289//289 291//291 292//292
f 293//293 294//294 295//295
f 293//293 295//295 296//296
f 297//297 298//298 299//299
f 297//297 299//299 300//300
f 301//301 302//302 303//303
f 301//301 303//303 304//304
f 305//305 306//306 307//307
f 305//305 307//307 308//308
f 309//309 310//310 311//311
f 309//309 311//311 312//312
f 313//313 314//314 315//315
f 313//313 315//315 316//316
f 317//317 318//318 319//319
f 317//317 319//319 320//320
f 321//321 322//322 323//323
f 321//321 323//323 324//324
f 325//325 326//326 327//327
f 325//325 327//327 328//328
f 329//329 330//330 331//331
f 329//329 331//331 332//332
f 333//333 334//334 335//335
f 333//333 335//335 336//336
f 337//337 338//338 339//339
f 337//337 339//339 340//340
f 341//341 342//342 343//343
f 341//341 343//343 344//344
f 345//345 346//346 347//347
f 345//345 347//347 348//348
f 349//349 350//350 351//351
f 349//349 351//351 352//352
f 353//353 354//354 355//355
f 353//353 355//355 356//356
f 357//357 358//358 359//359
f 357//357 359//359 360//360
f 361//361 362//362 363//363
f 361//361 363//363 364//364
f 365//365 366//366 367//367
f 365//365 367//367 368//368
f 369//369 370//370 371//371
f 369//369 371//371 372//372
f 373//373 374//374 375//375
f 373//373 375//375 376//376
f 377//377 378//378 379//379
f 377//377 379//379 380//380
f 381//381 382//382 383//383
f 381//381 383//383 384//384
f 385//385 386//386 387//387
f 385//385 387//387 388//388
f 389//389 390//390 391//391
f 389//389 391//391 392//392
f 393//393 394//394 395//395
f 393//393 395//395 396//396
f 397//397 398//398 399//399
f 397//397 399//399 400//400
f 401//401 402//402 403//403
f 401//401 403//403 404//404
f 405//405 406//406 407//407
f 405//405 407//407 408//408
f 409//409 410//410 411//411
f 409//409 411//411 412//412
f 413//413 414//414 415//415
f 413//413 415//415 416//416
f 417//417 418//418 419//419
f 417//417 419//419 420//420
f 421//421 422//422 423//423
f 421//421 423//423 424//424
f 425//425 426//426 427//427
f 425//425 427//427 428//428
f 429//429 430//430 431//431
f 429//429 431//431 432//432
f 433//433 434//434 435//435
f 433//433 435//435 436//436
f 437//437 438//438 439//439
f 437//437 439//439 440//440
f 441//441 442//442 443//443
f 441//441 443//443 444//444
f 445//445 446//446 447//447
f 445//445 447//447 448//448
f 449//449 450//450 451//451
f 449//449 451//451 452//452
f 453//453 454//454 455//455
f 453//453 455//455 456//456
f 457//457 458//458 459//459
f 457//457 459//459 460//460
f 461//461 462//462 463//463
f 461//461 463//463 464//464
f 465//465 466//466 467//467
f 465//465 467//467 468//468
f 469//469 470//470 471//471
f 469//469 471//471 472//472
f 473//473 474//474 475//475
f 473//473 475//475 476//476
f 477//477 478//478 479//479
f 477//477 479//479 480//480
f 481//481 482//482 483//483
f 481//481 483//483 484//484
f 485//485 486//486 487//487
f 485//485 487//487 488//488
f 489//489 490//490 491//491
f 489//489 491//491 492//492
f 493//493 494//494 495//495
f 493//493 495//495 496//496
f 497//497 498//498 499//499
f 497//497 499//499 500//500
f 501//501 502//502 503//503
f 501//501 503//503 504//504
f 505//505 506//506 507//507
f 505//505 507//507 508//508
f 509//509 510//510 511//511
f 509//509 511//511 512//512
f 513//513 514//514 515//515
f 513//513 515//515 516//516
f 517//517 518//518 519//519
f 517//517 519//519 520//520
f 521//521 522//522 523//523
f 521//521 523//523 524//524
f 525//525 526//526 527//527
f 525//525 527//527 528//528
f 529//529 530//530 531//531
f 529//529 531//531 532//532
f 533//533 534//534 535//535
f 533//533 535//535 536//536
f 537//537 538//538 539//539
f 537//537 539//539 540//540
f 541//541 542//542 543//543
f 541//541 543//543 544//544
f 545//545 546//546 547//547
f 545//545 547//547 548//548
f 549//549 550//550 551//551
f 549//549 551//551 552//552
f 553//553 554//554 555//555
f 553//553 555//555 556//556
f 557//557 558//558 559//559
f 557//557 559//559 560//560
f 561//561 562//562 563//563
f 561//561 563//563 564//564
f 565//565 566//566 567//567
f 565//565 567//567 568//568
f 569//569 570//570 571//571
f 569//569 571//571 572//572
f 573//573 574//574 575//575
f 573//573 575//575 576//576
f 577//577 578//578 579//579
f 577//577 579//579 580//580
f 581//581 582//582 583//583
f 581//581 583//583 584//584
f 585//585 586//586 587//587
f 585//585 587//587 588//588
f 589//589 590//590 591//591
f 589//589 591//591 592//592
f 593//593 594//594 595//595
f 593//593 595//595 596//596
f 597//597 598//598 599//599
f 597//597 599//599 600//600
f 601//601 602//602 603//603
f 601//601 603//603 604//604
f 605//605 606//606 607//607
f 605//605 607//607 608//608
f 609//609 610//610 611//611
f 609//609 611//611 612//612
f 613//613 614//614 615//615
f 613//613 615//615 616//616
